<?xml version="1.0" encoding="UTF-8"?>
<svg id="Layer_1" data-name="Layer 1" xmlns="http://www.w3.org/2000/svg" viewBox="0 0 453.54 340.16">
  <defs>
    <style>
      .cls-1 {
        fill: #f2e9e6;
      }

      .cls-2 {
        fill: #695f5c;
      }

      .cls-3 {
        fill: #f26722;
      }

      .cls-4 {
        fill: #f5b290;
      }

      .cls-5 {
        fill: #fff;
      }

      .cls-6 {
        fill: #fff8bf;
      }

      .cls-7 {
        fill: #f29d72;
      }

      .cls-8 {
        fill: #96cafa;
      }

      .cls-9 {
        fill: #7d6f6a;
      }

      .cls-10 {
        fill: #c44c0f;
      }

      .cls-11 {
        fill: #b6c97d;
      }

      .cls-12 {
        fill: #332d2a;
      }

      .cls-13 {
        fill: #cce6ff;
      }

      .cls-14 {
        fill: #add7ff;
      }

      .cls-15 {
        fill: #c4b7b2;
      }

      .cls-16 {
        fill: #d4c9c5;
      }

      .cls-17 {
        fill: #d65311;
      }

      .cls-18 {
        fill: #db7f51;
      }

      .cls-19 {
        fill: #deefff;
      }

      .cls-20 {
        fill: #d6cbc7;
      }

      .cls-21 {
        fill: #171412;
      }

      .cls-22 {
        fill: #1f8aad;
      }

      .cls-23 {
        fill: #2da3ca;
      }

      .cls-24 {
        fill: #4d4441;
      }

      .cls-25 {
        fill: rgba(255, 255, 255, .5);
      }
    </style>
  </defs>
  <g id="Layer_3">
    <g id="_2489657249632" data-name=" 2489657249632">
      <polygon class="cls-24" points="453.54 340.16 453.54 307.16 0 307.16 0 340.16 453.54 340.16"/>
      <polygon class="cls-20" points="0 0 453.54 0 453.54 313.36 0 313.36 0 43.62 0 43.62 0 0"/>
      <polygon class="cls-13" points="0 0 453.54 0 453.54 254.84 0 254.84 0 43.62 0 0"/>
      <path class="cls-19" d="M0,43.62H453.54v52.38H0V43.62ZM453.54,121.44H0v80.31H453.54V121.44h0Z"/>
      <polygon class="cls-14" points="453.54 56.26 453.54 90.46 453.54 254.84 271.57 254.84 271.57 233.59 215.02 233.59 215.02 233.46 176.02 233.46 176.02 247.5 176.02 254.84 0 254.84 0 181.18 13.3 181.18 13.3 151.44 44.27 151.44 44.27 111.78 69.11 111.78 69.11 88.98 77.87 88.98 77.87 78.07 111.22 78.07 125.09 88.98 125.09 104.84 158.99 104.84 158.99 80.05 170.58 72.12 186.43 72.12 186.43 53.29 237.09 53.29 237.09 80.05 271.57 80.05 271.57 51.3 290.49 51.3 290.49 29.24 325.26 29.24 325.26 51.3 334.96 51.3 343 85.75 343 123.68 355.23 123.68 355.23 140.53 370.91 140.53 370.91 99.88 378.71 99.88 378.71 94.18 387.94 79.56 397.63 79.56 397.63 94.18 404.02 94.18 404.02 99.88 410.17 99.88 410.17 126.16 421.52 126.16 421.52 90.46 433.35 90.46 433.35 56.26 453.54 56.26"/>
      <path class="cls-13" d="M453.54,56.26v39.73h-32.02v-5.53h11.83V56.26h20.2Zm0,65.19v80.31H0v-20.57H13.3v-29.74h30.97v-29.99H343v2.23h12.23v16.85h15.68v-19.09h39.26v4.71h11.35v-4.71h32.02ZM69.11,95.99v-7.01h8.75v-10.91h33.35l13.87,10.91v7.01h-55.97Zm89.88,0v-15.94l11.59-7.93h15.84v-18.84h50.66v26.77h34.48v-28.75h18.92v-7.69h34.77v7.69h9.69l8.04,34.45v10.24H158.99Zm219.72,0v-1.81l9.22-14.62h9.7v14.62h6.39v1.81h-25.31Z"/>
      <path class="cls-8" d="M83.79,105.58h18.45v118.48h-18.45V105.58h0Zm223.74,0h21.76V236.94h-21.76V105.58Zm116.84,0h16.08v54.53h-16.08v-54.53Z"/>
      <path class="cls-14" d="M102.24,121.44v80.31h-18.45V121.44h18.45Zm227.05,0v80.31h-21.76V121.44h21.76Zm111.16,0v38.66h-16.08v-38.66h16.08Z"/>
      <polygon class="cls-5" points="0 254.8 38.9 254.8 38.9 0 52.31 0 52.31 254.8 401.23 254.8 401.23 0 414.65 0 414.65 254.8 453.54 254.8 453.54 268.02 0 268.02 0 254.8"/>
      <polygon class="cls-9" points="426.34 264.99 453.54 264.99 453.54 300.16 426.34 300.16 426.34 264.99"/>
      <polygon class="cls-24" points="426.34 264.99 453.54 264.99 453.54 281.03 426.34 281.03 426.34 264.99"/>
      <polygon class="cls-12" points="376.3 173.08 453.54 173.08 453.54 273.17 371.86 273.17 376.3 173.08"/>
      <polygon class="cls-20" points="380.98 178.22 377 268.02 453.54 268.02 453.54 178.22 380.98 178.22"/>
      <polygon class="cls-12" points="408.59 294.18 453.54 294.18 453.54 301.95 408.59 301.95 408.59 294.18"/>
      <path class="cls-15" d="M384.66,182.26h28.4c-.33,13.04-.67,26.31-1.01,39.79-.35,13.73-.7,27.71-1.06,41.93h-29.95c.63-14.21,1.25-28.2,1.86-41.93,.6-13.48,1.19-26.76,1.76-39.79h0Z"/>
      <path class="cls-1" d="M453.54,211.41h-32.97c-.17,8.52-.34,17.15-.52,25.85-.18,8.81-.35,17.73-.53,26.72h34.02v-52.57h0Zm-32.39-29.15h32.39v20.77h-32.8c.07-3.5,.14-6.98,.21-10.44,.07-3.45,.14-6.89,.21-10.32h0Z"/>
      <path class="cls-15" d="M444.06,184.91h9.48v6.04h-9.51c0-2.02,.02-4.03,.03-6.04Z"/>
      <path class="cls-15" d="M448.58,195.55h4.97v2.83h-4.97c0-.94,0-1.88,0-2.83Z"/>
      <path class="cls-20" d="M444.56,215.82h8.98v5.7h-9.01c0-1.9,.02-3.81,.02-5.7Z"/>
      <path class="cls-5" d="M424.31,233.22h29.24v2.91h-29.29c.02-.97,.03-1.94,.05-2.91Zm.1-5.79h29.14v2.89h-29.19c.02-.96,.03-1.93,.05-2.89Zm-.51,29.39h29.64v3h-29.69c.02-1,.03-1.99,.05-3Zm.1-5.96c9.84,0,19.69,0,29.54,0v2.98c-9.86,0-19.73,0-29.59,0,.02-1,.03-1.99,.05-2.97Zm.1-5.93h29.44v2.96h-29.49c.02-.98,.03-1.97,.05-2.96Zm.1-5.87h29.34v2.93h-29.39c.02-.98,.03-1.96,.05-2.93Z"/>
      <path class="cls-5" d="M389.64,186.17h18.17c-.11,3.87-.22,7.77-.34,11.67-.11,3.92-.23,7.89-.34,11.85h-18.45c.16-3.96,.32-7.93,.48-11.85,.16-3.9,.32-7.8,.48-11.67h0Z"/>
      <path class="cls-1" d="M388.35,215.93h18.66c-.06,2.09-.12,4.18-.18,6.28h-18.74c.09-2.09,.17-4.18,.26-6.28Z"/>
      <path class="cls-1" d="M391.77,225.04h11.19c-.03,1.01-.06,2.01-.09,3.02h-11.21c.04-1.01,.08-2,.12-3.02h0Z"/>
      <path class="cls-5" d="M387.55,244.26h18.29c-.03,1.11-.06,2.21-.1,3.33h-18.33c.05-1.12,.09-2.22,.14-3.33Zm.24-5.79h18.22c-.03,1.1-.06,2.21-.1,3.32h-18.26c.05-1.1,.09-2.21,.13-3.32h0Zm-.71,17.5h18.43c-.03,1.13-.06,2.26-.1,3.39h-18.47c.05-1.14,.09-2.26,.14-3.39h0Zm.24-5.88h18.36c-.03,1.11-.07,2.24-.1,3.36h-18.4c.05-1.12,.09-2.24,.14-3.36h0Z"/>
      <path class="cls-1" d="M397.2,198.83h2.27c1.87,1.81,3.74,3.6,5.63,5.42-.07,1.81-.13,3.63-.2,5.44h-14.03c.08-1.81,.17-3.63,.25-5.45,2.02-1.81,4.06-3.61,6.09-5.41Z"/>
      <path class="cls-1" d="M398.54,191.3c2.51,0,4.48,2.21,4.39,4.94-.09,2.75-2.21,4.97-4.74,4.97s-4.5-2.22-4.39-4.97c.1-2.72,2.22-4.94,4.74-4.94Z"/>
      <path class="cls-6" d="M387.92,270.69c5.73-.61,11.46-1.23,17.2-1.84-.11,6.69,1.27,11.78,3.99,17.24-5.33,2-12.29,3.65-18.34,3.54-2.47-5.83-3.11-12.22-2.85-18.94Z"/>
      <path class="cls-11" d="M436.12,272.77c-5.73-.96-11.46-1.92-17.2-2.89,.11,6.7-1.27,11.71-3.99,17,5.33,2.32,12.29,4.4,18.34,4.65,2.47-5.68,3.11-12.03,2.85-18.77Z"/>
      <polygon class="cls-9" points="0 264.99 27.2 264.99 27.2 300.16 0 300.16 0 264.99"/>
      <polygon class="cls-24" points="0 264.99 27.2 264.99 27.2 281.03 0 281.03 0 264.99"/>
      <polygon class="cls-5" points="0 173.08 77.27 173.08 84.13 275.78 0 275.78 0 173.08"/>
      <polygon class="cls-12" points="0 173.08 77.25 173.08 81.68 273.17 0 273.17 0 173.08"/>
      <polygon class="cls-20" points="0 268.02 76.54 268.02 72.56 178.22 0 178.22 0 268.02"/>
      <polygon class="cls-12" points="0 294.18 44.95 294.18 44.95 301.95 0 301.95 0 294.18"/>
      <path class="cls-1" d="M70.18,211.41H0v52.57H72.51c-.4-9.01-.8-17.92-1.19-26.72-.39-8.7-.77-17.33-1.15-25.85h0ZM0,182.26H68.88c.15,3.44,.3,6.87,.46,10.33,.15,3.47,.31,6.95,.46,10.44-16.26,0-32.51,0-48.75,0H0v-20.77h0Z"/>
      <path class="cls-15" d="M0,184.91H46.02c.06,2.01,.12,4.02,.18,6.05H20.9c-6.97,0-13.93,0-20.9,0v-6.04Z"/>
      <path class="cls-15" d="M.15,195.55c6.93,0,13.86,0,20.8,0h20.81c.02,.94,.05,1.88,.07,2.83H20.98c-6.95,0-13.89,0-20.84,0,0-.94,0-1.88,0-2.83Z"/>
      <path class="cls-20" d="M0,215.82H46.27c.05,1.9,.11,3.8,.16,5.7H0v-5.7Z"/>
      <path class="cls-5" d="M0,233.22H66.94c.04,.97,.08,1.94,.12,2.91H0v-2.91ZM0,227.42H66.7c.04,.96,.08,1.93,.12,2.89H0v-2.89ZM0,256.81H67.93c.04,1,.08,2,.13,2.99-15.45,0-30.89,0-46.32,0H0v-3ZM0,250.85H21.62c15.34,0,30.7,0,46.06,0,.04,.99,.08,1.98,.12,2.98H0S0,250.85,0,250.85ZM0,244.92H67.43c.04,.98,.08,1.97,.12,2.96-15.33,0-30.66,0-45.97,0H0s0-2.96,0-2.96ZM0,239.05c7.16,0,14.32,0,21.47,0,15.23,0,30.47,0,45.71,0,.04,.98,.08,1.96,.12,2.93-15.27,0-30.54,0-45.8,0H0v-2.93Z"/>
      <path class="cls-6" d="M49.72,269.08c5.73-.61,11.46-1.23,17.2-1.84-.11,6.69,1.27,11.78,3.99,17.24-5.33,2-12.29,3.65-18.34,3.54-2.47-5.83-3.11-12.22-2.85-18.94h0Z"/>
      <path class="cls-9" d="M180.87,340.16l-.05-11.08H0v11.08H180.87Zm163.62,0l.83-11.08h-115.52l.05,11.08h114.65Zm109.05,0v-11.08h-58.96l-.83,11.08h59.79Z"/>
    </g>
  </g>
  <g id="Layer_4">
    <path class="cls-5" d="M86.01,24.8h72.85v.94H86.01v-.94Zm65.28,48.58h198.2v.94H151.29v-.94Zm239.25,48.53h-97.81v-.94h97.81v.94h0Zm-331.96-.94h62.91v.94H58.58v-.94Zm14.66-77.83h45.41v.94h-45.41v-.94ZM360.37,18.35h71.43v.94h-71.43v-.94Zm-45.88,145.25h71.43v.94h-71.43v-.94Zm-294.22,.5H114.87v.94H20.26v-.94Zm87.51,77.33h51.56v.94h-51.56v-.94Zm218.07,3.97h31.69v.94h-31.69v-.94Z"/>
    <path class="cls-25" d="M98.36,163.95c9.96,0,18.04,8.46,18.04,18.9s-8.07,18.9-18.04,18.9-18.04-8.46-18.04-18.9,8.07-18.9,18.04-18.9Zm235.73,30.73c4.83,0,8.75,4.11,8.75,9.17s-3.92,9.17-8.75,9.17-8.75-4.11-8.75-9.17,3.92-9.17,8.75-9.17Zm89.99,37.75c7.37,0,13.34,6.26,13.34,13.98s-5.97,13.98-13.34,13.98-13.34-6.26-13.34-13.98,5.97-13.98,13.34-13.98ZM90.74,76.82c7.31,0,13.24,6.21,13.24,13.88s-5.93,13.88-13.24,13.88-13.24-6.21-13.24-13.88,5.93-13.88,13.24-13.88ZM74.66,7.42c3.92,0,7.1,3.33,7.1,7.44s-3.18,7.44-7.1,7.44-7.1-3.33-7.1-7.44,3.18-7.44,7.1-7.44ZM365.34,55.01c7.45,0,13.48,6.33,13.48,14.13s-6.04,14.13-13.48,14.13-13.48-6.33-13.48-14.13,6.04-14.13,13.48-14.13ZM126.22,140.95c6.66,0,12.06,5.66,12.06,12.64s-5.4,12.64-12.06,12.64-12.06-5.66-12.06-12.64,5.4-12.64,12.06-12.64Z"/>
  </g>
  <g id="Layer_1-2" data-name="Layer_1">
    <g id="_2489543185808" data-name=" 2489543185808">
      <polygon class="cls-12" points="0 303.7 453.54 303.7 453.54 314.58 0 314.58 0 303.7"/>
      <polygon class="cls-21" points="192.55 314.58 369.93 314.58 369.93 303.7 192.55 303.7 192.55 314.58"/>
      <path class="cls-5" d="M248.2,115.04c0-.21,0-.41-.02-.6,.5-.12,1-.27,1.49-.46,.33-.19,.68-.35,1.05-.46,.94-.3,1.89-.68,2.86-1.17,.97-.49,1.88-.73,2.96-.78,.88-.04,1.58-.23,2.35-.63,2.14-1.04,3.34-3.82,2.31-6.17-1.67-3.71-1.23-8.81,1.21-13.23h0c1.49,.5,3.35-.04,4.81-1.23,.52-.42,.81-.99,.86-1.67,.05-.69-.14-1.31-.58-1.84-3.98-4.79-7.58-9.5-5.85-12.69,.03-.06,.06-.12,.09-.19l.06-.04c.36-.26,.54-.66,.51-1.12l-.11-1.41-.54-.07c-.44-1.03-5.26-12.31-5.29-12.31,.58-.72,1.04-1.46,1.39-2.22,1.09-.06,2.03-.73,2.33-1.73,1.44-4.71-2.23-10.46-7.43-13.72-5.61-5.07-13.64-7.52-17.26-3.03-22.12,.63-38.7,15.07-37.63,35.85,3.18,1.28,7.65,.51,12.26-1.62l4.9,25.81,.97,10.19-.78,5.27c2.38,4.36,10.96,7.03,16.65,9.29,5.94-1.59,14.9-3.52,16.43-8.03h0Z"/>
      <path class="cls-24" d="M182.75,149.72c-4.86,25.19-11.51,40.14-18.13,55.02-3.23,7.25-6.83,14.14-10.25,22.41l-22.61-.32-2.3-28.66c1.27-2.96,2.56-5.85,3.84-8.74,5.84-13.14,11.72-26.34,15.93-48.18l33.51,8.47h0Z"/>
      <polygon class="cls-5" points="212.55 110.36 246.16 112.97 249.41 123.75 247.9 264.73 202.73 260.47 202.82 178.03 206.48 120.91 212.55 110.36"/>
      <path class="cls-16" d="M246.16,112.97l3.25,10.79-1.51,140.98-11.29-1.06c1.2-12.64,.08-24.47-1.28-36.83-2.76-25.16-1.38-49.67,5.17-75.99l4.58-18.44c1.7-6.85,1.91-12.54,1.07-19.44Z"/>
      <path class="cls-16" d="M213.8,261.52l-11.08-1.04,.08-68.41c2.87-16.4,4.48-30.34,1.43-36.07l2.25-35.08,6.07-10.55-.23,1.53c-.78,5.16-.55,9.74,.74,14.87l7.16,28.33c6.51,25.75,7.11,49.72,1.72,74.11l-8.14,32.33h0Z"/>
      <path class="cls-5" d="M316.97,340.16l2.17-19.97-81.49-19.8-46.37,1.74-7.54,17.87-.54,20.17h-36.83l.69-25.57c-.24-5.03,1.02-10.22,3.93-14.87l19.32-30.75c4.41-7.84,5.42-1.72,14.81-1.72h21.19c10.88,0,23.74,6.85,35.49-.04,1.97,.23,1.67,.53,2.13,.62l13.13-8.7,82.13,17.68c12.51,1.98,21.31,13.46,19.94,26.54l-4,36.8h-38.17Z"/>
      <path class="cls-12" d="M305.98,340.16l1.35-17.28-70.99-14.97h-37.56l-8.23,13.59,.08,18.66h-48.97l-.1-23.63c-.4-4.94,.7-10.05,3.45-14.62,4.71-7.78,11.7-19.34,18.29-30.22,4.15-7.71,12.29-12.94,21.66-12.94h21.12c10.84,0,23.88,6.73,35.37-.04,1.98,.22,1.68,.52,2.14,.61l93.68,19.75c12.53,1.94,21.66,13.22,20.7,26.09l-2.74,35h-49.26Z"/>
      <path class="cls-21" d="M243.86,300.63l20.68-37.44,42.24,9.45c-17.47-2.03-28.91,9.14-36.88,19.9l-4.28-1.25-21.76,9.33h0Z"/>
      <polygon class="cls-23" points="242.61 128.77 242.61 128.77 244.44 134.9 241.07 129.23 236.68 130.55 232.64 142.26 243.52 241 227.08 263.59 212.89 240.17 228.5 142.14 224.71 131.15 219.48 129.63 215.64 135.07 219.51 125.94 231.13 128.57 241.72 125.79 242.61 128.77"/>
      <path class="cls-5" d="M247.23,271.55c-7.6,16.14,21.82,22.45,27.94,13.18l20.09-30.46c6.41-9.72,8.43-20.5,6.86-31.92-1.85-13.44-3.75-32.33-2.44-48.66,1.49-18.56-1.83-34.62-11.18-37.47-7.43-2.26-13.59-3.56-20.29-7.46-3.98-2.31-7.66-4.73-10.84-7.06l-11.09-11.41,.11,.78c.87,6.51,3.55,14.89,2.03,21.32l-4.34,18.44c-7.12,30.24-7.32,57.99-2.61,87.3,4.94,30.79,18.02,13.01,5.76,33.4h0Z"/>
      <path class="cls-22" d="M236.08,173.42l7.45,67.58-6.43,8.83c-.15-7.68-.91-15.24-1.76-23-1.96-17.84-1.83-35.35,.74-53.41h0Z"/>
      <path class="cls-22" d="M217.33,247.49l-4.44-7.32,10.82-67.97c2.98,19.43,2.4,38.08-1.78,56.99l-4.61,18.3h0Z"/>
      <path class="cls-24" d="M163.48,127.62c9.73,0,17.62,14.83,17.62,33.12s-7.89,33.12-17.62,33.12-17.62-14.83-17.62-33.12,7.89-33.12,17.62-33.12h0Z"/>
      <path class="cls-5" d="M171.21,189.76c6.19,41.03,7.84,54.09-12.67,98.04,4.07-8.41,4.54-10.25,13-9.22,14.05,1.7,34.07,21.58,36.98-12.94,.95-11.31,7.53-24.73,10.06-34.55,6.46-25.04,6.59-49.59,.55-76.01l-8.17-35.73,1.58-8.99-15.14,7.82c-11.05,5.08-21.7,7.58-33.79,9.44l7.59,62.14h0Z"/>
      <path class="cls-24" d="M170.52,189.76c5.84,41.03,7.37,54.09-13.52,98.04,4.14-8.41,4.63-10.25,13.08-9.22,14.04,1.7,33.89,21.58,37.09-12.94,1.05-11.31,7.75-24.73,10.36-34.55,6.67-25.04,7.02-49.59,1.21-76.01l-7.86-35.73,1.66-8.99-15.21,7.82c-11.1,5.08-21.77,7.58-33.87,9.44l7.05,62.14h0Z"/>
      <path class="cls-2" d="M218.04,229.19c6.19-24.39,6.38-48.35,.72-74.11l-6.23-28.33c-1.13-5.13-1.21-9.71-.26-14.87l.28-1.53-15.21,7.82-3.21,17.64,9.93,.95-9.46,4.02,8.03,15.01c11.67,21.79,16.59,43.19,15.61,67.89l-.22,5.5h0Z"/>
      <path class="cls-12" d="M243.33,277.58c-7.33,16.14,22.42,22.59,28.16,13.18l22.48-36.87c6.02-9.87,8.17-20.58,6.41-32.01-2.07-13.44-3.79-31.86-2.75-48.19,1.18-18.56-2.45-33.26-11.85-36.11-7.47-2.26-13.62-4.92-20.38-8.82-4.02-2.31-7.74-4.73-10.96-7.06l-8.28-8.75,.12,.78c.98,6.51,.8,12.23-.61,18.66l-4.03,18.44c-6.61,30.24-6.34,57.99-1.14,87.3,2.12,11.95,1.59,22.6-1.7,34.28l-1.29,4.6,5.81,.56h0Z"/>
      <path class="cls-24" d="M246.16,112.97l.12,.78c.98,6.51,.8,12.23-.61,18.66l-4.03,18.44c-5.75,26.32-6.14,50.79-2.88,75.99-.89-37.98,9.46-62.25,24.65-85.21l-11.12-7.57,9.7-1.66-7.56-10.68-8.28-8.75h0Z"/>
      <path class="cls-12" d="M205.79,231.79c-12.94,1.41-23.95,6.96-25.48,21.52-1.04,9.89-5.68,20.47-11.16,26.51l-7.98,23.88-4.7-16.43c16.1-36.47,19.19-55.02,14.07-96.18l-7.94-8.7c7.49-2.09,16.54-23.75,16.09-38.37,8.37,9.55,12.9,28.91,9.13,43.9-4.67,18.6-8.94,41.15,17.97,43.86h0Z"/>
      <path class="cls-24" d="M283.39,164.28c-1.7,11.66-4.06,22.26-7.97,30.4-3.9,8.13-5.16,16.12-3.95,25.06l.59,4.38-25,48.3c5.34-1.21,11.34-.27,15.43,3.38l19.36-41.65-5.91-3.55,12.54,1.66-9.46-5.68,4.97-1.18-2.37-35.48c2.43-8.39,3.11-16.93,1.77-25.64h0Z"/>
      <path class="cls-2" d="M161.33,139.14c5.19,0,9.4,6.06,9.4,13.54s-4.21,13.54-9.4,13.54-9.4-6.06-9.4-13.54,4.21-13.54,9.4-13.54h0Z"/>
      <polygon class="cls-2" points="151.93 152.68 140.9 189.58 162.35 163.8 151.93 152.68"/>
      <polygon class="cls-21" points="245.92 294.01 320.9 308.91 330.48 307.73 316.88 316.72 328.47 313.64 322.44 318.25 327.64 317.78 325.02 340.16 305.99 339.96 307.33 322.87 239.35 308.67 201.38 307.91 245.92 294.01"/>
      <path class="cls-18" d="M238.41,296.02l-.29,.59c-1.3,2.62-3.12,4.54-5.67,5.95-.62,.35-.99,.96-.99,1.67,0,.71,.36,1.33,.98,1.68,.61,.34,1.34,.45,2.06,.28l6.94-1.64-3.03-8.53h0Z"/>
      <polygon class="cls-2" points="195.85 248.39 170.19 250 176 240.32 200.94 237.88 195.85 248.39"/>
      <path class="cls-24" d="M181.07,249.32l-10.88,.68,5.81-9.68,10.94-1.07c-2.76,2.74-4.79,6.18-5.87,10.07h0Z"/>
      <polygon class="cls-12" points="179.24 249.43 195.26 248.43 177.23 252.51 179.24 249.43"/>
      <path class="cls-5" d="M241.67,288.77l2.88-5.31c3.38-6.25,23.71,.28,20.3,6.51l-2.94,5.38c-3.4,6.22-23.61-.34-20.24-6.58h0Z"/>
      <path class="cls-12" d="M180.63,159.67c-4.58,19.4-10.3,32.26-16,45.07-3.23,7.25-6.83,14.14-10.25,22.41l-22.61-.32-.24-2.96,3.82,.36-3.96-2.09-.17-2.13,5.77,.42-4.94-3.11,3.51,.07c13.2,.28,22.11-24.14,19.34-38.32,1.2,3.29,4.36,4.43,7.69,3.31l5.51,1.78,12.52-24.5h0Z"/>
      <polygon class="cls-24" points="254.94 236.83 269.51 234.98 263.39 246.8 256.9 246.76 254.94 236.83"/>
      <path class="cls-7" d="M242.66,287.82l-9.64,18.61c-.36,.69-.45,1.41-.27,2.2l1.96,8.8c.22,1,.81,1.8,1.71,2.34l5.99,3.57c.95,.57,1.99,.68,2.96,.3l12.54-4.94c.15-2.19-.3-3.88-2.34-5.08l-.76-.44-.53-4.07,1.7-3.34c1.4-2.77,1.76-5.61,1.11-8.78l-.09-.46,1.43-3.2c2.72-6.06-12.71-11.41-15.77-5.52h0Z"/>
      <path class="cls-12" d="M242.66,287.82l-2.92,5.64c1.1-1.94,2.49-2.99,3.93-2.97l7.86,.87-3.92-6.08c-2.19,.09-4.07,.86-4.95,2.54Z"/>
      <path class="cls-12" d="M256.99,296.54l1.43-3.2c1.18-2.64-1.08-5.75-4.78-6.85l-2.13,4.87c1.66,.09,6.28,2.76,5.47,5.18h0Z"/>
      <path class="cls-18" d="M246.17,113.79c0-.29,0-.56,0-.81-.15-3.14,5.52-2.43,8.5-2.54,3.61-.14,6.09-3.72,4.79-6.55-1.48-3.22-2.15-8.77,1.55-12.77,1.48,.49,3.35-.03,4.84-1.18,.53-.41,.83-.95,.9-1.61,.07-.66-.11-1.26-.54-1.77-3.86-4.62-7.34-9.17-5.52-12.24,.46-.79,.52-1.66,.17-2.5-1.62-3.89-3.56-8.43-5.07-12.11-7.74-3.98-15.48-7.96-23.21-11.94-8.26,5.78-16.52,11.56-24.78,17.34,1.85,10.86,3.69,21.71,5.54,32.57l.71,9.83-.92,5.08c2.27,4.2,10.78,6.78,16.41,8.96,5.98-1.54,14.99-3.4,16.64-7.75h0Z"/>
      <path class="cls-7" d="M235.46,120.01c-2.12-5.57-3.04-11.29-2.31-14.08,2.8-2.94,8.98-4.25,11.78-7.2-.85-7.61,10.29-10.88,3.06-20.23-2.58-3.33-13.8-16.51-9.17-18.88-3.06-3.27-6.13-6.55-9.19-9.82-7.28,5.09-14.56,10.19-21.84,15.28,1.85,10.86,3.69,21.71,5.54,32.57,.13,1.84,.27,3.67,.4,5.51,.22,3.02-.64,4.22-1.18,7.2-.03,5.55,10.43,8.63,16.98,11.17,1.8-.46,3.87-.95,5.93-1.53Z"/>
      <path class="cls-18" d="M219.26,80.28c-2.81,2.28-2.44,7.38,.81,11.38,3.26,4,8.17,5.4,10.98,3.11,2.81-2.28,2.44-7.38-.81-11.38-3.26-4-8.17-5.4-10.98-3.11Z"/>
      <path class="cls-12" d="M261,91.11c-2.56,4.27-3.13,9.19-1.55,12.77,1.25,2.85-1.17,6.41-4.79,6.55-1.1,.04-2.04,.28-3.04,.75-.98,.47-1.94,.84-2.89,1.13-.38,.12-.73,.27-1.06,.45-8.75,3.23-19.99-4.03-16.64-22.3-3.48-1.72-3.94-4.43-3.5-5.97,1.17-4.93,7.95-1.89,10.12-.3,.19,6.29,.81,12.18,5.54,14.32,1.48,.67,3.21,.06,3.96-1.38,.32-.62,.64-1.23,.95-1.85,2.77-5.36,6.92-5.93,12.89-4.16h0Z"/>
      <path class="cls-12" d="M255.79,59.69c9.98-11.58-13.19-28.37-20.44-19.96-22.14,.61-39.08,14.53-38.55,34.59,7.28,4.05,7.51,21.93,16.79,26.75,7.57,3.93,1.46-13.88,7.05-18.74,3.45,1.35,6.91,2.71,10.36,4.06,2.22-.73,4.45-1.47,6.67-2.2,.54-6.48-5-11.74-4.56-17.41,.21-2.7,1.54-4.94,3.81-6.41,2.27-1.47,7.94-1.31,10.49-.39,3.37,1.2,6.35,2.08,8.38-.28h0Z"/>
      <path class="cls-24" d="M255.79,59.69c9.98-11.58-13.19-28.37-20.44-19.96-22.14,.61-39.08,14.53-38.55,34.59,5.88,2.3,16.44-2.29,24.12-9.44-.76,2.35-3.24,5.08-5.83,6.75,10.6,.84,17.13-17.82,31.28-11.95h0c.38,.09,.73,.19,1.04,.29,3.37,1.2,6.35,2.08,8.38-.28h0Z"/>
      <path class="cls-7" d="M215.8,79.05c-2.42,1.96,.39,6.29,3.64,10.29,3.26,4,7.85,5.65,10.27,3.69,2.42-1.96-.32-3.21-2.3-10.19-1.98-6.98-9.19-5.75-11.61-3.78Z"/>
      <path class="cls-12" d="M256.59,73.81l.83-1.92-1.24,.75-2.59,.02c-.99,0-1.83,.24-2.69,.73l-6.04,3.47,6.31-2.23c.96-.34,1.86-.41,2.87-.22l1.04,.2c.64,.12,1.27-.21,1.53-.81h0Z"/>
      <path class="cls-12" d="M245.7,77.8c1.86,1.6,4.83,2,7.37,1.05-.72,.96-2.22,1.54-4.19,.95,1.77,1.42,6.12,.98,5.58-2.43,1.28-.1,1.93,.06,3.03,.88-.95-1.27-2.08-1.87-3.39-1.99-2.37,1.31-5.75,2.15-8.41,1.53h0Z"/>
      <path class="cls-9" d="M253.26,48.82c-2-9.16-20.55-12.29-27.51-2.78,8.77-7.93,25.21-3.07,24.44,6.59,.39-.16,.77-.33,1.15-.49,1.4-.6,2.21-2,1.92-3.32Z"/>
      <path class="cls-12" d="M260.78,74.13l-.72-2.65,1.24,.17,.08,1.36c.02,.44-.17,.83-.53,1.08l-.06,.04Z"/>
      <path class="cls-5" d="M252.72,59.78c3.14-8.25-7.93-20.52-17.35-16.73,9.87-1.59,18.66,10.92,13.38,18.1,.34,.08,.68,.15,1.03,.23,1.25,.27,2.49-.4,2.94-1.59h0Z"/>
      <path class="cls-12" d="M226.7,57.21c-10.24-3.01-10.11,9.25-18.6,10.68,9.9,.47,10.01-11.58,18.6-10.68Z"/>
      <path class="cls-9" d="M229.87,54.02c-12.32-9.96-14.67,14.02-27.46,10.47,13.5,6.7,16.07-16.87,27.46-10.47Z"/>
      <path class="cls-5" d="M235.19,56.95c-2-9.16-20.55-12.3-27.51-2.78,8.77-7.93,25.21-3.07,24.44,6.59,.38-.16,.77-.33,1.15-.49,1.4-.6,2.21-2,1.92-3.32Z"/>
      <path class="cls-12" d="M259.61,55.89c2.71-7.9-9.95-18.87-19.66-14.85,10.35-1.98,20.61,9.33,15.56,16.33,.37,.05,.74,.11,1.11,.16,1.34,.2,2.61-.5,3-1.64h0Z"/>
      <path class="cls-9" d="M224.04,65.29c-5.13,2.88-8.9,11.91-16.2,6.26,6.8,1.34,12.27-5.73,18.41-8.59,0,.01-.01,.02-.02,.04-.51,1.01-1.21,1.74-2.19,2.29h0Z"/>
      <path class="cls-12" d="M241.71,57.8c3.34-8.5-9.76-19.45-20.45-14.68,11.28-2.64,21.77,8.79,15.94,16.46,.4,.04,.79,.08,1.19,.11,1.44,.13,2.84-.66,3.32-1.89Z"/>
      <path class="cls-5" d="M215.44,52.02c-7.55-.17-5.2,8.18-10.74,10.71,6.85-1.5,4.71-9.75,10.74-10.71Z"/>
      <path class="cls-5" d="M259.64,93.89c-1.9,1.41-4.13,2.07-6.67,2.03,1.95,1.65,3.86,2.05,5.75,1.42,.31-1.15,.61-2.3,.92-3.45Z"/>
      <path class="cls-18" d="M217.12,80.83c-1.66,1.35,.62,4.15,3.22,6.73,2.6,2.58,6.05,3.58,7.7,2.23,.78-.64,.74-1.14,.28-1.98-.1,.29-.27,.54-.5,.73-.81,.66-2.14,.38-2.96-.63-.71-.87-.81-2-.3-2.72,.59-.83,.76-1.78,.51-2.77-.25-.98-.87-1.73-1.78-2.17-2.23-1.08-5.02-.34-6.15,.58Z"/>
      <path class="cls-5" d="M223.35,155.82h23.77c1.36,0,2.46,1.12,2.44,2.48l-.58,32.22c-.02,.88-.75,1.6-1.63,1.6h-24.65c-.88,0-1.59-.72-1.58-1.6l.59-33.1c.02-.88,.75-1.6,1.63-1.6h0Z"/>
      <path class="cls-18" d="M222.06,79.84c-1.19,.17-2.73,.91-2.99,2.65,1.01-1.62,3.98-2.34,5.41-1.41,.17-.64-.09-1.18-.17-1.68-.75,.14-1.5,.29-2.25,.43Z"/>
      <path class="cls-17" d="M222.28,156.61h24.65c.88,0,1.6,.72,1.6,1.6v32.31c0,.88-.72,1.6-1.6,1.6h-24.65c-.88,0-1.6-.72-1.6-1.6v-32.31c0-.88,.72-1.6,1.6-1.6h0Z"/>
      <path class="cls-10" d="M238.88,156.61h8.05c.88,0,1.6,.72,1.6,1.6v32.31c0,.88-.72,1.6-1.6,1.6h-8.05v-35.51h0Z"/>
      <path class="cls-7" d="M223.61,169.15h3.86c.48,0,.9,.22,1.17,.63,.27,.4,.31,.87,.13,1.32-.65,1.56-2.14,2.57-3.88,2.57h-5.3l4.02-4.51h0Z"/>
      <path class="cls-12" d="M246.58,284.32c2.85-1.85,6.18-1.37,7.45,1.05,1.27,2.43-.02,5.89-2.86,7.74-2.85,1.85-6.18,1.37-7.45-1.05-1.27-2.43,.02-5.89,2.86-7.74Z"/>
      <path class="cls-7" d="M203.28,178.33l3.29-4.79c1.72-2.5,4.27-3.91,7.3-4.04l4.11-.18v3.09h12.03c1.29,0,2.34,1.05,2.34,2.34v.81c0,1.03-.37,1.92-1.1,2.65l-1.13,1.13v9.36c0,2.09-.96,3.89-2.7,5.05l-.34,.22c-1.32,.88-2.68,1.31-4.27,1.34l-13.93,.25-13.58,7.1-1.1-19.58,9.07-4.74h0Z"/>
      <path class="cls-4" d="M224.19,172.42h5.82c1.29,0,2.34,1.05,2.34,2.34v.81c0,1.03-.37,1.92-1.1,2.65l-1.13,1.13v9.36c0,2.09-.96,3.89-2.7,5.05l-.34,.22c-.93,.62-1.87,1.01-2.9,1.2v-22.76Z"/>
      <polygon class="cls-5" points="191.33 182.32 199.19 179.36 206.23 198.64 196.06 203.01 191.33 182.32"/>
      <path class="cls-12" d="M201.42,201.67c-10.92,6.42-16.39,16.97-10.45,24.73l-12.2-3.95-2.84-18.21,25.49-2.57h0Z"/>
      <path class="cls-5" d="M129.47,200.26l63.79-19.75,8.16,21.17-36.17,22.29c-5.85,3.6-11.64,5.4-18.42,5.7l-10.02,.45c-2.62,.12-4.89-.78-6.68-2.64-4.45-4.64-4.06-18.04-.65-27.21h0Z"/>
      <path class="cls-24" d="M129.47,198.17l63.79-17.91,8.16,21.4-36.17,21.24c-5.85,3.43-11.64,5.06-18.42,5.17l-10.02,.16c-2.62,.04-4.89-.92-6.68-2.84-4.45-4.77-4.06-18.16-.65-27.23h0Z"/>
      <path class="cls-3" d="M221.66,164.14h2.95c2.67,0,2.8,5.01,0,5.01h-1.01v3.27h-5.62v-5.47c0-1.55,1.27-2.81,2.81-2.81h.87Z"/>
      <path class="cls-5" d="M225.95,179.35c.22,.49,.34,1.07,.32,1.69-.02,.62-.19,1.21-.45,1.69-.38,.71-.41,1.4-.08,2.11,.22,.49,.34,1.07,.32,1.69-.02,.62-.19,1.21-.45,1.69-.38,.71-.4,1.4-.08,2.11,.22,.49,.34,1.07,.32,1.69-.06,1.73-1.19,3.13-2.52,3.13l.85-22.76c1.33,0,2.35,1.4,2.29,3.13-.02,.62-.19,1.21-.45,1.69-.38,.71-.41,1.4-.08,2.11h0Z"/>
      <path class="cls-7" d="M225.32,179.35c.15,.49,.22,1.07,.2,1.69-.02,.62-.14,1.21-.33,1.69-.27,.71-.29,1.4-.08,2.11,.15,.49,.22,1.07,.2,1.69-.02,.62-.14,1.21-.33,1.69-.27,.71-.3,1.4-.08,2.11,.15,.49,.22,1.07,.2,1.69-.06,1.73-.86,3.13-1.77,3.13s-1.6-1.4-1.54-3.13c.04-1.19,.43-2.22,.96-2.75-.49-.53-.8-1.56-.76-2.75,.04-1.19,.43-2.22,.96-2.75-.49-.53-.8-1.56-.76-2.75,.04-1.19,.43-2.22,.96-2.75-.49-.53-.8-1.56-.76-2.75,.06-1.73,.86-3.13,1.77-3.13s1.6,1.4,1.54,3.13c-.02,.62-.14,1.21-.33,1.69-.27,.71-.29,1.4-.08,2.11h0Z"/>
      <path class="cls-2" d="M189.31,184.57l-48.25,14.16c-10.28,3.02-6.68,16.8,2.96,11.37l45.29-25.53Z"/>
      <polygon class="cls-5" points="198.78 307.91 192.39 322.98 192.39 340.16 190.64 340.16 190.55 321.5 198.78 307.91"/>
    </g>
  </g>
</svg>