<?xml version="1.0" encoding="UTF-8" standalone="no"?>
<!DOCTYPE svg PUBLIC "-//W3C//DTD SVG 1.1//EN" "http://www.w3.org/Graphics/SVG/1.1/DTD/svg11.dtd">
<svg width="100%" height="100%" viewBox="0 0 500 500" version="1.1" xmlns="http://www.w3.org/2000/svg" xmlns:xlink="http://www.w3.org/1999/xlink" xml:space="preserve" xmlns:serif="http://www.serif.com/" style="fill-rule:evenodd;clip-rule:evenodd;stroke-linejoin:round;stroke-miterlimit:2;">
    <g transform="matrix(0.839303,0,0,0.839303,-921.388,-1002.76)">
        <g transform="matrix(2.97866,0,0,2.97866,1097.8,1194.75)">
            <path d="M200,169.59C200,169.597 200,169.603 200,169.61C200,186.281 186.281,200 169.61,200C169.603,200 169.597,200 169.59,200L30.39,200C13.719,200 -0,186.281 -0,169.61C-0,169.603 -0,169.597 0,169.59L0,30.39C-0,13.719 13.719,0 30.39,0L169.59,0C169.597,-0 169.603,-0 169.61,-0C186.281,-0 200,13.719 200,30.39L200,169.59Z" style="fill:rgb(46,74,108);fill-rule:nonzero;"/>
        </g>
        <g transform="matrix(0.128746,0,0,0.128746,1395.67,1492.62)">
            <g transform="matrix(1,0,0,1,-2000,-1552.06)">
                <g>
                    <path d="M1998.69,517.355C1925.48,584.596 1838.39,717.15 1749.84,856.582C1700.37,793.876 1644.39,738.494 1580.88,691.552C1659.96,456.903 1807.89,226.945 2000,0L1997.38,0C2189.49,226.945 2337.42,456.903 2416.5,691.552C2352.99,738.493 2297.01,793.875 2247.54,856.582C2158.99,717.15 2071.9,584.596 1998.69,517.355Z" style="fill:rgb(148,204,170);fill-rule:nonzero;"/>
                    <path d="M2000,1967.26C1791.75,1967.26 1598.75,1813.92 1628.03,1550.75C1661.11,1253.51 1786.74,986.929 2000,753.111C2213.26,986.929 2338.89,1253.51 2371.97,1550.75C2401.26,1813.92 2170.27,1967.26 2000,1967.26Z" style="fill:rgb(148,204,170);fill-rule:nonzero;"/>
                    <path d="M1999.79,2113.95C2212.58,2121.39 2328.7,2245.62 2287.72,2518.66C2259.22,2708.6 2148.14,2903.58 1999.79,3104.13C1851.44,2903.58 1740.36,2708.6 1711.85,2518.66C1670.87,2245.62 1787,2121.39 1999.79,2113.95Z" style="fill:rgb(148,204,170);fill-rule:nonzero;"/>
                    <path d="M2297.32,969.221C2383.41,845.041 2482.85,758.994 2592.01,700.721C2723.66,1068 2698.92,1354.69 2516.04,1559.92C2451.74,1335.37 2381.5,1129.91 2297.32,969.221Z" style="fill:rgb(148,204,170);fill-rule:nonzero;"/>
                    <path d="M2141.45,2047.15C2345.54,2017.78 2469.69,1879.36 2522.59,1643.75C2669.04,1611.98 2780.78,1532.67 2867.06,1418.47C2926,1959.4 2420.43,2259.33 2141.45,2047.15Z" style="fill:rgb(148,204,170);fill-rule:nonzero;"/>
                    <path d="M2721.68,1393.58L2936.48,1244.27C2963.34,1361.01 2967.54,1489.25 2956.12,1625.41C3272.83,1331.07 3430.46,945.711 3387.03,445.318C3150.04,562.23 2933.22,726.449 2736.08,933.858C2766.75,1079.46 2757.99,1233.55 2721.68,1393.58Z" style="fill:rgb(148,204,170);fill-rule:nonzero;"/>
                    <path d="M2404.72,2189.91C2722.51,2094.5 2962.72,1891.88 3126.39,1583.5C3314.62,1483.62 3489.06,1461.91 3647.67,1529.8C3332.01,2109.26 2874.92,2347.09 2404.72,2189.91Z" style="fill:rgb(148,204,170);fill-rule:nonzero;"/>
                    <path d="M2872.3,2265.88C3056.15,2287.93 3204.07,2198.62 3329.4,2039.29C3617.16,2079.65 3862.99,2148.39 4000,2290.77C3500.98,2467.58 3083.1,2543.27 2872.3,2265.88Z" style="fill:rgb(148,204,170);fill-rule:nonzero;"/>
                    <path d="M2379.83,2216.11C2320.25,2240.35 2305.51,2306.55 2337.92,2360.18C2364.8,2422.65 2441.32,2598.07 2635.91,2706.78C2768.78,2781.01 2933.94,2815.45 3127.7,2814.67C3079.28,2650.26 2986.25,2462.34 2855.27,2370.66C2743.08,2292.13 2540.93,2387.69 2379.83,2216.11Z" style="fill:rgb(148,204,170);fill-rule:nonzero;"/>
                    <path d="M1620.17,2216.11C1679.75,2240.35 1694.5,2306.55 1662.08,2360.18C1635.2,2422.65 1558.68,2598.07 1364.09,2706.78C1231.22,2781.01 1066.06,2815.45 872.298,2814.67C920.722,2650.26 1013.75,2462.34 1144.73,2370.66C1256.92,2292.13 1459.07,2387.69 1620.17,2216.11Z" style="fill:rgb(148,204,170);fill-rule:nonzero;"/>
                    <path d="M1702.68,969.221C1616.59,845.041 1517.15,758.994 1407.99,700.721C1276.34,1068 1301.08,1354.69 1483.95,1559.92C1548.26,1335.37 1618.5,1129.91 1702.68,969.221Z" style="fill:rgb(148,204,170);fill-rule:nonzero;"/>
                    <path d="M1858.55,2047.15C1654.46,2017.78 1530.31,1879.36 1477.41,1643.75C1330.96,1611.98 1219.22,1532.67 1132.94,1418.47C1074,1959.4 1579.57,2259.33 1858.55,2047.15Z" style="fill:rgb(148,204,170);fill-rule:nonzero;"/>
                    <path d="M1278.32,1393.58L1063.52,1244.27C1036.66,1361.01 1032.46,1489.25 1043.88,1625.41C727.166,1331.07 569.542,945.711 612.967,445.318C849.961,562.23 1066.78,726.449 1263.92,933.858C1233.25,1079.46 1242.01,1233.55 1278.32,1393.58Z" style="fill:rgb(148,204,170);fill-rule:nonzero;"/>
                    <path d="M1595.29,2189.91C1277.49,2094.5 1037.28,1891.88 873.609,1583.5C685.38,1483.62 510.945,1461.91 352.326,1529.8C667.992,2109.26 1125.08,2347.09 1595.29,2189.91Z" style="fill:rgb(148,204,170);fill-rule:nonzero;"/>
                    <path d="M1127.7,2265.88C943.851,2287.93 795.927,2198.62 670.596,2039.29C382.837,2079.65 137.011,2148.39 0,2290.77C499.018,2467.58 916.903,2543.27 1127.7,2265.88Z" style="fill:rgb(148,204,170);fill-rule:nonzero;"/>
                </g>
            </g>
        </g>
    </g>
</svg>
