<?xml version='1.0' encoding='utf-8'?>
<svg xmlns="http://www.w3.org/2000/svg" version="1.1" x="0px" y="0px" width="3000px" height="2178.007px" viewBox="0 0 3000 2178.007" enable-background="new 0 0 3000 2178.007"> <g id="Layer_7"> </g> <g id="Layer_1"> <g> <path fill="#E0CFE0" d="M2209.715,445.119c-163.377-195.707-447.996-325.291-771.797-325.291 c-487.795,0-886.643,294.067-916.008,665.287c-196.59,130.077-321.207,323.236-321.207,538.91 c0,391.689,410.916,709.216,917.813,709.216c259.449,0,493.719-83.214,660.648-216.954c40.137,4.146,81.08,6.326,122.684,6.326 c506.891,0,917.807-317.527,917.807-709.217C2819.654,805.168,2565.164,542.905,2209.715,445.119z"/> <g> <g> <g> <path fill="#60938F" d="M2555.354,656.272c-0.104-0.01-0.207-0.038-0.324-0.047c-0.529-0.063-1.082-0.104-1.635-0.104h-14.555 h-7.645c0,0.01,0.02,0.019,0.02,0.04c0,8.443-5.396,15.399-12.355,16.342v63.542c0,21.437-8.133,39.637-19.514,46.553 c-1.406,3.623-3.104,6.794-4.955,9.409h23.633c7.061,0,13.379-5.741,17.494-14.696c11.361-5.866,19.512-21.296,19.512-39.482 v-53.877c6.941-0.804,12.342-6.695,12.342-13.869C2567.371,663.05,2562.158,657.23,2555.354,656.272z"/> </g> <g> <path fill="#74AFAB" d="M2518.859,736.046v-63.542c6.959-0.942,12.355-7.898,12.355-16.342c0-0.021-0.02-0.03-0.02-0.04 h-80.742h-14.576c-0.529,0-1.088,0.04-1.613,0.104c-0.992,0.112-1.977,0.347-2.891,0.66c-5.498,1.875-9.449,7.078-9.449,13.197 c0,7.174,5.395,13.065,12.34,13.869v53.877c0,18.187,8.156,33.616,19.514,39.482c4.111,8.955,10.41,14.696,17.492,14.696 h23.121c1.852-2.615,3.549-5.786,4.955-9.409C2510.727,775.683,2518.859,757.482,2518.859,736.046z"/> </g> </g> <g> <path fill="#FFCA43" d="M2630.475,436.502c-11.207-20.348-29.881-38.18-53.41-51.074c-11.775-6.447-24.744-11.343-38.594-14.634 c-13.828-3.29-28.578-4.968-43.836-4.8c-15.256,0.167-29.979,2.151-43.83,5.707c-13.832,3.541-26.824,8.632-38.58,15.156 c-23.52,13.021-42.221,30.804-53.404,51.111c-7.453,13.534-11.588,28.374-11.588,43.78c0,11.57,2.32,22.874,6.637,34.053 c4.303,11.165,10.594,22.602,18.533,34.029c5.297,7.616,11.33,15.714,18.008,24.891c3.344,5.508,6.826,11.608,10.473,18.217 c3.646,6.621,7.434,13.893,11.342,21.845c3.928,8.566,7.988,17.425,12.158,26.938c2.283,5.074,4.613,10.164,6.99,15.165 c0.914-0.313,1.898-0.548,2.891-0.66c0.525-0.063,1.084-0.104,1.613-0.104h14.576h88.387h14.555c0.553,0,1.105,0.04,1.635,0.104 c0.117,0.009,0.221,0.037,0.324,0.047c3.262-6.954,6.439-13.9,9.533-20.437c4.195-8.585,8.25-16.614,12.178-24.177 c3.908-7.558,7.705-14.596,11.348-21.165c3.643-6.578,7.129-12.69,10.443-18.269c6.688-9.801,12.715-18.186,18.002-26.011 c5.303-7.465,9.873-14.903,13.617-21.98c7.447-14.16,11.563-28.697,11.563-44.001 C2642.037,464.937,2637.922,450.068,2630.475,436.502z"/> </g> <g> <g> <g> <g> <rect x="2513.033" y="506.076" fill="#E78529" width="4.926" height="70.688"/> </g> <g> <rect x="2468.768" y="506.076" fill="#E78529" width="4.936" height="70.688"/> </g> </g> <g> <g> <rect x="2496.975" y="544.38" fill="#E78529" width="4.936" height="28.088"/> </g> <g> <rect x="2484.793" y="544.38" fill="#E78529" width="4.936" height="28.088"/> </g> </g> <g> <g> <path fill="#E78529" d="M2493.361,609.896c-16.527,0-33.248-4.35-33.248-12.65s16.721-12.65,33.248-12.65 c16.508,0,33.23,4.35,33.23,12.65S2509.869,609.896,2493.361,609.896z M2493.361,589.536c-18.318,0-28.32,5.095-28.32,7.71 s10.002,7.72,28.32,7.72c18.326,0,28.311-5.104,28.311-7.72S2511.688,589.536,2493.361,589.536z"/> </g> <g> <path fill="#E78529" d="M2493.361,596.482c-16.527,0-33.248-4.336-33.248-12.648c0-8.289,16.721-12.639,33.248-12.639 c16.508,0,33.23,4.35,33.23,12.639C2526.592,592.146,2509.869,596.482,2493.361,596.482z M2493.361,576.126 c-18.318,0-28.32,5.104-28.32,7.708c0,2.627,10.002,7.722,28.32,7.722c18.326,0,28.311-5.095,28.311-7.722 C2521.672,581.23,2511.688,576.126,2493.361,576.126z"/> </g> </g> <g> <path fill="#E78529" d="M2493.697,549.421c-7.977,0-16.066-2.145-16.066-6.931c0-4.8,8.09-6.946,16.066-6.946 c8.006,0,16.068,2.146,16.068,6.946C2509.766,547.276,2501.703,549.421,2493.697,549.421z M2482.945,542.49 c1.346,0.839,5.072,2.004,10.752,2.004c5.682,0,9.432-1.165,10.771-2.004c-1.34-0.857-5.09-2.02-10.771-2.02 C2488.018,540.471,2484.291,541.633,2482.945,542.49z"/> </g> </g> <g> <path fill="#E78529" d="M2511.363,501.436c-1.859,0-3.445-1.256-4.484-2.231c-0.666-0.611-1.285-1.425-1.912-2.269 c-1.084-1.415-2.57-3.365-3.545-3.067c-0.613,0.171-1.447,1.366-2.141,2.313c-0.836,1.182-1.707,2.394-2.939,3.246 c-2.193,1.507-4.152,2.103-5.963,1.741c-2.521-0.469-3.918-2.475-5.016-4.092c-1.518-2.25-1.828-2.271-2.648-2.039 c-0.482,0.146-1.213,0.979-1.842,1.721c-1.508,1.716-3.57,4.045-7.17,4.045c-0.047,0-0.094,0-0.15,0 c-3.221-0.04-6.104-3.248-6.9-4.228c-0.938-1.137-3.055-4.09-2.525-6.904l4.842,0.895c-0.043,0.371,0.426,1.674,1.715,3.15 c1.322,1.507,2.592,2.146,2.957,2.156c1.336-0.01,2.172-0.844,3.521-2.37c1.078-1.244,2.32-2.65,4.18-3.187 c4.477-1.336,6.76,1.994,8.1,3.981c0.592,0.862,1.326,1.936,1.838,2.034c0.338,0.052,1.098-0.162,2.277-0.966 c0.506-0.355,1.115-1.211,1.711-2.046c1.178-1.661,2.541-3.546,4.809-4.197c4.234-1.224,7.111,2.576,8.813,4.849 c0.469,0.631,0.98,1.301,1.336,1.617c0.479,0.462,0.807,0.685,1.008,0.804c0.248-0.262,0.613-0.719,0.9-1.089 c0.65-0.865,1.486-1.953,2.648-2.96c2.672-2.313,7.963-3.263,11.85-0.736l-2.664,4.146c-1.818-1.169-4.686-0.794-5.971,0.316 c-0.77,0.673-1.377,1.468-1.949,2.231c-1.068,1.373-2.24,2.943-4.318,3.114C2511.604,501.426,2511.48,501.436,2511.363,501.436 z"/> </g> <g> <g> <rect x="2513.033" y="605.088" fill="#E78529" width="4.926" height="51.034"/> </g> <g> <rect x="2468.768" y="605.088" fill="#E78529" width="4.936" height="51.034"/> </g> </g> </g> </g> <g> <g> <rect x="1096.889" y="1611.727" fill="#758698" width="596.396" height="34.262"/> <path fill="#A2ACBE" d="M2071.846,1433.839c0,36.541-29.646,66.164-66.164,66.164h-1251.6c-36.533,0-66.17-29.623-66.17-66.164 V601.268c0-36.541,29.637-66.166,66.17-66.166h1251.6c36.518,0,66.164,29.625,66.164,66.166V1433.839z"/> <g> <path fill="#6E8CA4" d="M718.182,1300.617v115.017c0,34.952,28.316,63.274,63.25,63.274h1196.854 c34.98,0,63.297-28.322,63.297-63.274v-115.017H718.182z"/> <path fill="#A2B8DB" d="M2041.582,619.473c0-34.95-28.316-63.276-63.297-63.276H781.432c-34.934,0-63.25,28.326-63.25,63.276 v681.145h1323.4V619.473z"/> </g> <rect x="789.609" y="1341.487" fill="#FFFFFF" width="25.008" height="97.547"/> <rect x="827.83" y="1341.487" fill="#FFFFFF" width="25.057" height="97.547"/> <g> <rect x="960.355" y="1341.487" fill="#FFFFFF" width="12.496" height="97.547"/> <polygon fill="#FFFFFF" points="908.352,1343.376 908.352,1436.152 966.598,1389.763 "/> </g> <rect x="718.182" y="1278.229" fill="#FFFFFF" width="1323.4" height="22.389"/> <rect x="718.182" y="1278.229" fill="#F26A54" width="714.684" height="22.389"/> <path fill="#F26A54" d="M1456.592,1289.427c0,15.648-12.693,28.343-28.352,28.343c-15.646,0-28.34-12.694-28.34-28.343 c0-15.655,12.693-28.332,28.34-28.332C1443.898,1261.095,1456.592,1273.771,1456.592,1289.427z"/> <g> <polygon fill="#627080" points="1510.176,1500.003 1279.961,1500.003 1279.961,1606.374 1510.176,1518.804 "/> <polygon fill="#758698" points="1279.961,1606.374 1279.961,1611.727 1510.176,1611.727 1510.176,1518.804 "/> </g> <g> <path fill="#316782" d="M1978.285,1481.309H781.432c-36.199,0-65.648-29.462-65.648-65.675V619.473 c0-36.215,29.449-65.677,65.648-65.677h1196.854c36.223,0,65.695,29.462,65.695,65.677v796.161 C2043.98,1451.847,2014.508,1481.309,1978.285,1481.309z M781.432,558.596c-33.551,0-60.85,27.31-60.85,60.877v796.161 c0,33.567,27.299,60.875,60.85,60.875h1196.854c33.58,0,60.896-27.308,60.896-60.875V619.473 c0-33.567-27.316-60.877-60.896-60.877H781.432z"/> </g> </g> <g> <path fill="#FFFFFF" d="M1990.646,1424.82h-271.938v-85.733h271.938V1424.82z M1723.508,1420.021h262.338v-76.134h-262.338 V1420.021z"/> </g> <path fill="#FFFFFF" d="M1254.906,1042.063c0,34.927-28.338,63.279-63.275,63.279H891.074c-34.93,0-63.244-28.353-63.244-63.279 V776.475c0-34.934,28.314-63.265,63.244-63.265h300.557c34.938,0,63.275,28.331,63.275,63.265V1042.063z"/> </g> <linearGradient id="SVGID_1_" gradientUnits="userSpaceOnUse" x1="1412.3193" y1="1582.3799" x2="1412.3193" y2="1725.0931"> <stop offset="0" style="stop-color:#5D6C94"/> <stop offset="1" style="stop-color:#8F89C2"/> </linearGradient> <rect x="715.174" y="1646.297" fill="url(#SVGID_1_)" width="1394.291" height="63.917"/> <linearGradient id="SVGID_2_" gradientUnits="userSpaceOnUse" x1="1412.2842" y1="1646.2949" x2="1412.2842" y2="1789.0125"> <stop offset="0" style="stop-color:#5D6C94"/> <stop offset="1" style="stop-color:#8F89C2"/> </linearGradient> <rect x="665.84" y="1710.214" fill="url(#SVGID_2_)" width="1492.889" height="63.919"/> <linearGradient id="SVGID_3_" gradientUnits="userSpaceOnUse" x1="1412.3594" y1="1710.2129" x2="1412.3594" y2="1852.9326"> <stop offset="0" style="stop-color:#5D6C94"/> <stop offset="1" style="stop-color:#8F89C2"/> </linearGradient> <rect x="612.654" y="1774.133" fill="url(#SVGID_3_)" width="1599.41" height="63.92"/> <rect x="282.785" y="1838.053" fill="#49555D" width="2586.502" height="31.959"/> <g> <g> <path fill="#FEBE10" d="M832.297,657.833c0,99.631-80.766,180.389-180.383,180.389c-99.621,0-180.391-80.758-180.391-180.389 c0-99.622,80.77-180.38,180.391-180.38C751.531,477.453,832.297,558.211,832.297,657.833z"/> </g> <g> <path fill="#FFFFFF" d="M651.914,829.116c-94.428,0-171.287-76.844-171.287-171.283c0-94.442,76.859-171.272,171.287-171.272 c94.451,0,171.285,76.83,171.285,171.272C823.199,752.272,746.365,829.116,651.914,829.116z M651.914,497.491 c-88.424,0-160.334,71.938-160.334,160.342c0,88.417,71.91,160.351,160.334,160.351c88.414,0,160.359-71.934,160.359-160.351 C812.273,569.43,740.328,497.491,651.914,497.491z"/> </g> <g> <path fill="#FFFFFF" d="M727.135,686.567c0,15.346-6.445,28.517-19.34,39.516c-12.912,10.984-30.021,17.211-51.357,18.657 v49.464H632.73v-48.646c-10.182-0.092-21.941-1.315-35.295-3.671c-13.35-2.364-23.783-5.317-31.33-8.863v-39.782h6.131 c8.34,4.551,17.957,8.187,28.803,10.896c10.875,2.734,21.637,4.502,32.357,5.322v-37.331l-13.199-3.007 c-8.357-1.905-16.059-4.115-23.094-6.675c-7.037-2.531-13.121-5.892-18.182-10.075c-5.1-4.169-9.057-9.334-11.869-15.461 c-2.813-6.126-4.223-13.695-4.223-22.686c0-13.529,6.168-25.118,18.547-34.748c12.328-9.611,29.465-15.433,51.354-17.441 v-31.739h23.707v31.472c8.361,0.373,18.135,1.545,29.338,3.542c11.225,1.996,20.051,4.321,26.52,6.958v39.229h-6.004 c-6.449-3.72-13.949-6.811-22.461-9.255c-8.541-2.456-17.695-4.006-27.393-4.643v34.605l10.893,2.187 c20.521,3.991,35.633,10.049,45.297,18.184C722.297,660.708,727.135,672.037,727.135,686.567z M634.9,629.211v-31.61 c-5.977,0.459-11.381,1.979-16.139,4.567c-4.781,2.578-7.156,6.253-7.156,10.97c0,4.271,1.531,7.584,4.625,9.946 C619.33,625.439,625.539,627.485,634.9,629.211z M677.699,691.888c0-5.269-2.461-9.208-7.293-11.793 c-4.895-2.58-9.703-4.244-14.508-4.974v33.8c5.986-0.815,11.104-2.573,15.369-5.255 C675.543,700.995,677.699,697.053,677.699,691.888z"/> </g> </g> <g> <path fill="#9C83B8" d="M2524.529,1019.814c-5.947-91.932-85.283-161.633-177.203-155.685 c-14.816,0.956-29.051,3.844-42.494,8.367c-31.596-49.788-88.672-81.258-151.686-77.182 c-84.98,5.495-150.928,73.741-155.691,156.657c-63.787,34.261-103.637,87.299-99.959,144.248 c1.201,18.479,6.9,35.955,16.34,52.016h562.412C2508.809,1115.504,2527.746,1069.516,2524.529,1019.814z"/> </g> <g> <g> <ellipse fill="#E0CFE0" cx="427.084" cy="1938.312" rx="120.156" ry="21.639"/> </g> <g> <path fill="#005A76" d="M348.635,1396.99c0.455-12.531-3.814-22.091-9.402-31.338c-5.611-9.239-13.213-18.543-18.777-30.622 c-16.98-21.622-11.914-38.121-17.66-61.828c2.531-22.555-7.979-35.771-17.291-46.738c-8.564-11.786-16.922-22.293-4.018-38.861 c10.096-12.986,24.473-25.133,27.49-39.832c5.752-23.162-5.438-38.313,3.619-57.732c9.402-11.228,22.09-21.61,33.873-31.739 c9.365-9.491,18.824-19.076,26.639-27.807c6.014-7.291,11.834-14.036,16.109-19.21c4.584-4.91,7.781-8.555,8.09-10.085 c2.029-0.576,5.512-1.774,9.604-2.856c4.229-0.708,9.295-0.76,14.053,0.777c5.24,3.39,11.338,11.116,17.408,25.939 c5.377,22.404,8.471,45.143,7.008,61.153c-0.98,13.085-14.699,17.13-18.336,25.616c-3.914,9.21-5.311,20.896-9.68,27.86 c-9.703,14.844-21.922,23.166-7.139,36.063c16.273,12.969,50.096,23.869,57.699,40.909 c10.926,22.663-4.594,42.569-23.924,68.339c-3.758,15.496-5.441,31.391-7.453,47.06c-4.4,15.084-11.549,28.955-20.797,41.932 c-10.99,12.96-22.18,28.69-33.236,46.909c-5.404,9.099-10.414,19.052-15.326,29.124c-4.922,10.075-9.764,20.333-14.83,30.024 c-5.049,11.144-11.732,19.62-18.037,28.371c-6.299,8.753-12.225,17.797-15.881,30.46L348.635,1396.99z"/> <path fill="#007395" d="M369.859,1686.236c-2.926-3.058-5.996-6.374-9.1-9.95c-3.135-3.675-6.332-7.669-9.443-11.929 c-3.09-4.728-6.014-9.623-8.484-14.741c-2.451-5.133-4.467-10.455-5.672-15.886c-2.398-10.848-0.674-22.684,7.102-35.692 c5.236-7.532,11.924-16.635,18.871-27.669c7.092-11.214,12.988-24.055,15.875-38.667c-1.57-7.914-3.807-15.873-6.205-23.59 c-2.428-7.741-5.025-15.185-7.285-22.342c-3.941-13.956-5.455-27.865-3.389-41.064c2.096-13.598,6.014-25.798,10.768-36.738 c4.719-10.942,10.26-20.616,15.59-29.173c11.395-14.296,19.699-25.744,25.305-35.412c5.686-9.655,9.197-18.146,11.713-26.37 c2.691-6.573,5.016-12.866,8.18-19.104c2.799-6.206,7.52-12.149,14.188-18.238c11.803-9.151,23.619-18.835,26.502-31.908 c1.453-6.562,0.211-22.737,2.85-37.462c2.672-15.374,7.828-28.52,21.758-27.313c19.438,2.271,27.439,14.413,29.502,29.382 c1.805,14.875-1.795,31.756-4.902,45.881c-1.557,7.007-3.553,14.174-5.893,21.174c-2.619,7.247-5.283,14.523-7.799,22.004 c-4.055,8.697-6.713,17.83-7.34,27.607c-0.633,9.764,0.941,19.75,4.438,29.504c3.709,7.645,8.568,14.647,14.283,20.659 c5.75,6.011,12.008,11.483,17.791,17.075c3.211,6.138,5.193,12.742,5.592,20.459c0.404,7.699-0.871,16.771-3.758,27.09 c-3.371,10.978-8.334,22.916-14.977,35.841c-6.463,12.93-11.773,25.798-13.615,37.209c1.227,9.004,4.031,16.541,7.584,23.214 c3.566,6.58,8.047,12.446,12.449,18.01c4.189,6.241,5.857,12.623,5.154,18.779c-0.703,6.136-3.936,11.814-9.58,16.802 c-8.227,4.651-18.721,8.205-31.09,11.02c-6.211,1.411-12.74,2.793-19.367,4.352c-6.646,1.563-13.34,3.462-19.916,5.588 c-11.867,4.78-22.98,10.578-32.479,17.773c-9.496,7.194-17.449,15.051-24.293,22.386c-6.094,6.855-11.719,12.7-16.855,17.629 c-5.133,4.926-9.768,8.908-13.809,12.018L369.859,1686.236z"/> <path fill="#0080A5" d="M359.791,1692.677c-2.818-7.661-5.41-15.749-7.932-24.174c-2.531-8.451-5.08-17.073-7.93-25.461 c-2.879-8.585-6.334-16.951-10.607-25.048c-4.191-8.222-9.314-16.188-15.266-23.643c-5.012-5.071-10.811-9.851-17.268-13.961 c-6.479-4.132-13.631-7.429-21.197-9.995c-7.92-2.684-15.936-5.538-23.547-9.27c-7.607-3.733-14.822-8.348-21.262-14.19 c-11.502-11.926-19.521-25.008-24.809-38.46c-3.619-12.867-3.248-25.702-1.041-38.267c3.988-12.404,8.816-24.771,11.117-37.368 c1.965-12.238,0.104-25.684-5.854-40.65c-4.895-11.556-10.936-22.118-18.111-31.985c-7.359-9.627-15.918-17.979-24.473-25.681 c-17.131-15.381-30.959-29.037-37.455-45.576c-3.945-16.487-4.461-31.237-1.758-46.325c1.238-14.903,5.264-30.912,12.586-50.43 c5.371-13.834,8.146-26.572,9.617-38.56c0.938-12.064,0.998-23.07,1.256-33.005c0.305-9.932,0.742-18.932,1.734-27.607 c1.125-8.23,2.578-16.18,5.809-24.142c8.686,2.025,12.885,12.703,17.238,20.177c4.205,7.387,8.32,15.856,12.807,26.365 c4.611,10.994,9.852,24.162,16.635,38.449c7.518,14.288,16.639,27.026,28.141,34.954c11.957,6.464,26.123,8.024,41.502,7.525 c13.301-0.846,27.166-2.446,40.291-2.081c13.129,0.361,25.264,3.75,35.098,11.666c11.482,13.01,12.955,24.449,10.133,38.267 c-2.83,13.82-10.049,31.066-15.42,56.767c-3.961,23.181-4.182,42.208-1.383,56.03c2.854,13.593,7.363,24.242,10.176,34.746 c2.602,9.618,5.568,18.154,9.186,27.102c3.639,8.934,7.303,18.868,12.248,30.523c5.02,12.813,5.873,22.322,5.119,32.13 c-0.896,10.08-3.412,20.579-5.414,35.886c-2.455,14.319-3.479,27.743-3.994,40.514c-0.66,12.076-0.693,23.293-0.66,33.827 c-0.314,9.792-0.629,19.367-1.383,28.962c-0.75,9.595-1.762,19.213-3.408,28.904c-0.984,6.761-2.695,13.956-4.039,21.333 c-1.373,7.395-2.404,14.974-2.156,22.141L359.791,1692.677z"/> </g> </g> <g> <g> <path fill="#FFFFFF" d="M2161.662,1050.162c-1.518,0-3.037-0.527-4.266-1.601c-2.695-2.354-2.971-6.447-0.619-9.145 c16.236-18.583,35.004-28.404,54.297-28.404c19.289-0.003,38.07,9.819,54.297,28.404c2.357,2.695,2.08,6.789-0.613,9.145 c-2.695,2.357-6.793,2.081-9.146-0.616c-13.699-15.686-29.098-23.973-44.537-23.973s-30.832,8.289-44.533,23.97 C2165.262,1049.41,2163.463,1050.162,2161.662,1050.162z"/> </g> <g> <path fill="#FFFFFF" d="M2282.395,1029.811c-1.748,0-3.486-0.703-4.762-2.089c-20.342-22.076-43.357-33.747-66.559-33.747 s-46.215,11.671-66.553,33.747c-2.424,2.63-6.52,2.804-9.154,0.375c-2.635-2.425-2.803-6.526-0.375-9.158 c22.855-24.81,49.168-37.924,76.082-37.924s53.229,13.114,76.082,37.924c2.428,2.632,2.26,6.733-0.375,9.158 C2285.539,1029.245,2283.969,1029.811,2282.395,1029.811z"/> </g> <g> <path fill="#FFFFFF" d="M2122.637,1011.026c-1.574,0-3.145-0.567-4.393-1.716c-2.629-2.423-2.797-6.524-0.369-9.158 c28.039-30.435,60.268-46.521,93.199-46.521h0.01c32.928,0,65.152,16.089,93.191,46.522c2.428,2.632,2.258,6.733-0.375,9.156 c-2.635,2.429-6.732,2.257-9.16-0.375c-25.516-27.701-54.445-42.342-83.656-42.344c-29.221,0-58.154,14.643-83.686,42.347 C2126.123,1010.323,2124.381,1011.026,2122.637,1011.026z"/> </g> <g> <path fill="#FFFFFF" d="M2320.385,991.059c-1.748,0-3.492-0.703-4.771-2.09c-31.84-34.563-67.988-52.834-104.539-52.834 s-72.697,18.271-104.537,52.834c-2.43,2.629-6.529,2.803-9.16,0.375c-2.633-2.424-2.803-6.524-0.379-9.156 c34.361-37.299,73.805-57.013,114.076-57.013c40.268-0.003,79.711,19.712,114.076,57.013c2.424,2.632,2.256,6.732-0.379,9.156 C2323.529,990.492,2321.955,991.059,2320.385,991.059z"/> </g> <g> <path fill="#FFFFFF" d="M2237.875,1064.28c0,14.607-11.84,26.447-26.443,26.447c-14.605,0-26.451-11.84-26.451-26.447 c0-14.608,11.846-26.448,26.451-26.448C2226.035,1037.832,2237.875,1049.672,2237.875,1064.28z"/> </g> </g> <g> <g> <linearGradient id="SVGID_4_" gradientUnits="userSpaceOnUse" x1="961.7158" y1="1075.7324" x2="1086.7996" y2="840.4563"> <stop offset="0" style="stop-color:#F68C3D"/> <stop offset="1" style="stop-color:#F05140"/> </linearGradient> <path fill="url(#SVGID_4_)" d="M1180.994,916.221c0,74.275-60.211,134.482-134.475,134.482s-134.48-60.207-134.48-134.482 c0-74.269,60.217-134.473,134.48-134.473S1180.994,841.952,1180.994,916.221z"/> </g> <polygon opacity="0.4" fill="#ED1C24" points="1009.936,849.119 1009.936,997.232 1125.311,923.175 "/> <linearGradient id="SVGID_5_" gradientUnits="userSpaceOnUse" x1="999.4258" y1="1000.7651" x2="1054.5284" y2="897.1198"> <stop offset="0" style="stop-color:#FFFFFF"/> <stop offset="1" style="stop-color:#FFFFFF"/> </linearGradient> <polygon fill="url(#SVGID_5_)" points="1009.936,849.119 1009.936,983.33 1114.484,916.226 "/> </g> <g> <path fill="none" d="M1993.946,712.555c-3.497-38.26-17.491-87.173-40.599-140.543l-0.013,0.02 C1976.438,625.392,1990.441,674.3,1993.946,712.555z"/> <path fill="none" d="M1994.521,720.352c0.041,0.736,0.079,1.47,0.111,2.198C1994.601,721.822,1994.563,721.088,1994.521,720.352z "/> <path fill="none" d="M1994.292,716.754c0.058,0.792,0.109,1.579,0.157,2.361C1994.402,718.333,1994.35,717.546,1994.292,716.754z "/> <path fill="none" d="M1993.997,713.094c0.078,0.878,0.147,1.748,0.215,2.615C1994.145,714.842,1994.075,713.972,1993.997,713.094 z"/> <path fill="none" d="M1992.626,755.041c-0.062,0.301-0.128,0.596-0.19,0.895C1992.498,755.637,1992.564,755.342,1992.626,755.041 z"/> <path fill="none" d="M1992.035,757.74c-0.077,0.33-0.158,0.656-0.239,0.982C1991.877,758.396,1991.958,758.07,1992.035,757.74z"/> <path fill="none" d="M1991.37,760.37c-0.088,0.327-0.178,0.652-0.27,0.974C1991.192,761.021,1991.282,760.696,1991.37,760.37z"/> <path fill="none" d="M1990.623,762.946c-0.094,0.302-0.186,0.606-0.282,0.904 C1990.438,763.552,1990.529,763.249,1990.623,762.946z"/> <path fill="none" d="M1994.814,729.987c-0.004-0.86-0.016-1.731-0.031-2.605C1994.799,728.257,1994.811,729.126,1994.814,729.987 z"/> <path fill="none" d="M1989.771,765.52c-0.087,0.246-0.17,0.497-0.259,0.739C1989.602,766.016,1989.685,765.766,1989.771,765.52z"/> <path fill="none" d="M1994.81,732.442c-0.006,0.504-0.021,0.999-0.03,1.499C1994.789,733.441,1994.804,732.947,1994.81,732.442z"/> <path fill="none" d="M1994.593,738.963c-0.026,0.475-0.056,0.945-0.087,1.415 C1994.537,739.909,1994.566,739.438,1994.593,738.963z"/> <path fill="none" d="M1994.379,742.142c-0.035,0.443-0.07,0.885-0.11,1.323C1994.309,743.026,1994.344,742.584,1994.379,742.142z "/> <path fill="none" d="M1993.145,752.263c-0.024,0.147-0.054,0.289-0.08,0.435C1993.091,752.552,1993.12,752.41,1993.145,752.263z"/> <path fill="none" d="M1994.686,723.89c0.025,0.693,0.053,1.387,0.07,2.072C1994.738,725.277,1994.711,724.583,1994.686,723.89z"/> <path fill="none" d="M1993.705,748.522c-0.039,0.293-0.074,0.592-0.115,0.884 C1993.631,749.115,1993.666,748.816,1993.705,748.522z"/> <path fill="none" d="M1994.09,745.285c-0.041,0.398-0.082,0.798-0.127,1.192C1994.009,746.083,1994.049,745.684,1994.09,745.285z "/> <path fill="none" d="M1994.736,735.735c-0.017,0.495-0.039,0.982-0.061,1.472C1994.697,736.718,1994.72,736.23,1994.736,735.735z "/> <path fill="#F69B95" d="M1644.586,918.616l2.666-2.853c7.326-7.842,7.098-19.193-0.463-25.379l-51.604-42.111l6.495,13.858 L1644.586,918.616z"/> <polygon fill="#EB918F" points="1633.642,930.326 1644.586,918.616 1601.681,862.131 "/> <path fill="#E5DBCF" d="M1550.738,952.849c-14.001-28.284-20.346-59.077-23.09-84.41l-51.482,15.104 c-1.672,0.49-3.328,0.888-4.957,1.206c4.739,23.523,16.711,70.095,43.223,113.941c37.479,61.995,53.838,70.655,66.09,64.903 c0,0,41.406-9.245,68.498-24.542C1625.477,1035.667,1583.793,1019.644,1550.738,952.849z"/> <path fill="#FFFFFF" d="M1585.035,851.604l-57.387,16.835c2.744,25.333,9.089,56.126,23.09,84.41 c33.055,66.795,74.738,82.818,98.281,86.202c18.844-10.638,30.768-24.199,17.01-39.62l-32.388-69.104l-31.961-68.195 l-6.495-13.858l-0.303-0.646C1591.943,849.189,1588.625,850.551,1585.035,851.604z"/> <path fill="#CD394F" d="M1576.158,821.393c1.286-0.378,2.563-0.701,3.826-0.977l-19.267-32.257 c-67.954,13.875-105.601,9.503-126.394,1.097l-4.131,2.467c-6.654,3.975-14.666,2.863-17.854-2.487 c-2.416-4.048-1.4-9.348,2.102-13.414c-4.723-5.556-5.49-10.02-5.49-10.02l-7.131-13.401c-5.642,1.696-11.395,0.144-13.988-4.195 c-2.76-4.624-1.049-10.875,3.74-15.063l-7.795-14.648c-1.795-2.211-3.453-4.458-5.008-6.725 c-5.945,2.213-12.25,0.754-15.008-3.854c-2.879-4.819-0.882-11.419,4.397-15.593c-4.663-11.032-7.212-21.812-8.563-31.067 l-5.049,4.902c-23.389,13.973-28.695,48.133-11.863,76.316l53.158,88.994c12.518,20.955,33.75,32.691,53.435,31.591 c4.115-3.947,10.468-7.519,18.017-9.732L1576.158,821.393z"/> <path fill="#FFFFFF" d="M1974.281,539.097l34.105-53.626c11.896-7.105,11.586-29.515-0.693-50.066l-3.91-6.55l-17.549-29.36 l-3.898-6.556c-12.277-20.544-31.859-31.451-43.766-24.34l-63.377,4.609c18.528,24.268,36.802,51.199,54.129,80.208 C1946.648,482.423,1961.697,511.28,1974.281,539.097z"/> <path fill="#E5555C" d="M1929.322,453.415c-17.327-29.008-35.601-55.94-54.129-80.208 c-72.914-95.505-149.768-149.726-188.377-126.666c-2.418,1.443-4.635,3.175-6.674,5.16c-0.057,0.03-0.135,0.059-0.201,0.094 c55.332,5.664,146.354,93.559,221.016,218.563c1.23,2.059,2.447,4.117,3.656,6.175c0.321,0.548,0.637,1.095,0.957,1.643 c0.934,1.596,1.862,3.192,2.782,4.786c0.19,0.331,0.38,0.662,0.569,0.994c17.25,29.99,32.128,59.652,44.426,88.055 c23.107,53.37,37.102,102.283,40.599,140.543c0.017,0.179,0.034,0.36,0.051,0.539c0.078,0.878,0.147,1.748,0.215,2.615 c0.027,0.349,0.055,0.698,0.08,1.045c0.058,0.792,0.11,1.579,0.157,2.361c0.025,0.414,0.05,0.825,0.072,1.236 c0.041,0.736,0.079,1.471,0.111,2.198c0.021,0.449,0.036,0.894,0.053,1.34c0.025,0.693,0.053,1.388,0.07,2.072 c0.013,0.477,0.019,0.947,0.027,1.42c0.016,0.875,0.027,1.745,0.031,2.605c0.003,0.823,0.004,1.645-0.005,2.455 c-0.006,0.504-0.021,0.999-0.03,1.499c-0.014,0.6-0.024,1.202-0.043,1.794c-0.017,0.495-0.039,0.982-0.061,1.472 c-0.025,0.588-0.051,1.175-0.083,1.756c-0.026,0.475-0.056,0.945-0.087,1.415c-0.039,0.592-0.08,1.18-0.127,1.764 c-0.035,0.443-0.07,0.885-0.11,1.323c-0.055,0.612-0.115,1.218-0.179,1.82c-0.041,0.398-0.081,0.798-0.127,1.192 c-0.079,0.689-0.167,1.368-0.258,2.045c-0.039,0.293-0.074,0.592-0.115,0.884c-0.137,0.965-0.285,1.918-0.445,2.857 c-0.024,0.147-0.054,0.289-0.08,0.435c-0.139,0.79-0.283,1.572-0.438,2.342c-0.062,0.301-0.128,0.596-0.19,0.895 c-0.129,0.607-0.261,1.21-0.4,1.805c-0.077,0.33-0.158,0.656-0.239,0.982c-0.138,0.554-0.278,1.104-0.426,1.647 c-0.088,0.327-0.178,0.652-0.27,0.974c-0.153,0.541-0.313,1.074-0.478,1.603c-0.094,0.302-0.186,0.606-0.282,0.904 c-0.183,0.564-0.375,1.119-0.569,1.669c-0.087,0.246-0.17,0.497-0.259,0.739c-0.288,0.785-0.585,1.559-0.897,2.313 c0.057-0.057,0.127-0.094,0.174-0.146c2.719-0.841,5.301-1.978,7.711-3.417c38.608-23.064,27.305-116.434-22.219-225.913 C1961.697,511.28,1946.648,482.423,1929.322,453.415z"/> <path fill="#E5DBCF" d="M1989.771,765.52c0.194-0.55,0.387-1.104,0.569-1.669c0.097-0.298,0.188-0.602,0.282-0.904 c0.164-0.529,0.324-1.062,0.478-1.603c0.092-0.322,0.182-0.647,0.27-0.974c0.147-0.543,0.288-1.093,0.426-1.647 c0.081-0.327,0.162-0.652,0.239-0.982c0.14-0.594,0.271-1.198,0.4-1.805c0.063-0.299,0.129-0.594,0.19-0.895 c0.155-0.77,0.3-1.552,0.438-2.342c0.026-0.146,0.056-0.288,0.08-0.435c0.16-0.938,0.309-1.892,0.445-2.857 c0.041-0.292,0.076-0.59,0.115-0.884c0.091-0.677,0.179-1.355,0.258-2.045c0.045-0.394,0.086-0.794,0.127-1.192 c0.063-0.603,0.124-1.208,0.179-1.82c0.04-0.438,0.075-0.88,0.11-1.323c0.047-0.584,0.088-1.172,0.127-1.764 c0.031-0.47,0.061-0.94,0.087-1.415c0.032-0.581,0.058-1.167,0.083-1.756c0.021-0.49,0.044-0.977,0.061-1.472 c0.019-0.593,0.029-1.194,0.043-1.794c0.01-0.5,0.024-0.994,0.03-1.499c0.009-0.811,0.008-1.632,0.005-2.455 c-0.004-0.861-0.016-1.73-0.031-2.605c-0.009-0.473-0.015-0.943-0.027-1.42c-0.018-0.685-0.045-1.379-0.07-2.072 c-0.017-0.446-0.032-0.891-0.053-1.34c-0.032-0.728-0.07-1.462-0.111-2.198c-0.022-0.411-0.047-0.823-0.072-1.236 c-0.048-0.783-0.1-1.569-0.157-2.361c-0.025-0.347-0.053-0.696-0.08-1.045c-0.067-0.867-0.137-1.737-0.215-2.615 c-0.017-0.179-0.034-0.36-0.051-0.539c-3.505-38.255-17.509-87.163-40.611-140.523c-7.126-16.458-15.11-33.337-23.927-50.46 c2.672,8.175,5.057,16.563,6.453,25.538c5.246,33.858,7.664,68.487-6.67,100.369c-15.52,34.512-43.68,57.866-78.004,72.64 c-41.52,17.868-107.336,9.606-213.201,40.905c-17.707,5.235-37.178,7.622-54.732,14.167l23.651,39.596 c149.722-82.52,318.124,7.469,381.71-46.215c0.313-0.755,0.609-1.528,0.897-2.313 C1989.602,766.016,1989.685,765.766,1989.771,765.52z"/> <path fill="#FFFFFF" d="M1583.254,775.191c17.555-6.545,37.025-8.933,54.732-14.167 c105.865-31.299,171.682-23.037,213.201-40.905c34.324-14.773,62.484-38.128,78.004-72.64 c14.334-31.882,11.916-66.511,6.67-100.369c-1.396-8.976-3.781-17.363-6.453-25.538c8.816,17.123,16.801,34.002,23.927,50.46 l0.013-0.02c-12.298-28.403-27.176-58.065-44.426-88.055c-0.189-0.332-0.379-0.663-0.569-0.994 c-0.92-1.594-1.849-3.19-2.782-4.786c-0.32-0.547-0.636-1.095-0.957-1.643c-1.209-2.058-2.426-4.116-3.656-6.175 c-74.662-125.005-165.684-212.899-221.016-218.563c-77.442,30.549-77.235,222.939-221.018,315.642 c0.475,0.553,0.918,1.144,1.305,1.791L1583.254,775.191z"/> <path fill="#E5555C" d="M1460.229,569.229c-0.387-0.647-0.83-1.238-1.305-1.791c-4.024-4.683-10.979-5.934-16.486-2.647 c-6.154,3.682-8.184,11.638-4.523,17.769l1.039,1.74l-79.357,76.957c1.352,9.255,3.9,20.035,8.563,31.067 c0.59-0.466,1.21-0.911,1.88-1.311l73.068-43.642c6.656-3.979,14.662-2.866,17.857,2.491c3.197,5.353,0.389,12.925-6.275,16.906 l-73.064,43.64c-0.932,0.557-1.889,1.004-2.855,1.363c1.555,2.266,3.213,4.513,5.008,6.725l7.795,14.648 c0.769-0.673,1.609-1.297,2.531-1.848l73.063-43.643c6.66-3.979,14.662-2.868,17.867,2.496 c3.188,5.351,0.381,12.923-6.279,16.899l-73.064,43.643c-1.256,0.749-2.561,1.317-3.869,1.71l7.131,13.401 c0,0,0.768,4.464,5.49,10.02c1.139-1.322,2.537-2.515,4.17-3.491l73.068-43.645c6.666-3.979,14.648-2.871,17.854,2.491 c3.197,5.351,0.391,12.923-6.271,16.902l-68.938,41.176c20.793,8.406,58.439,12.778,126.394-1.097l19.267,32.257 c-1.263,0.275-2.54,0.599-3.826,0.977l-108.865,31.934c-7.549,2.214-13.901,5.786-18.017,9.732 c-3.913,3.753-5.806,7.844-4.759,11.435l1.041,3.529c1.92,6.537,12.906,9.214,25.65,6.726c1.629-0.318,3.285-0.716,4.957-1.206 l51.482-15.104l57.387-16.835c3.59-1.053,6.908-2.414,9.848-3.976c7.456-3.96,12.449-9.215,13.13-14.047 c3.429-4.11,4.093-10.076,1.208-14.917l-2.315-3.877l-23.651-39.596L1460.229,569.229z"/> <path fill="#C61348" d="M1363.762,707.915c2.758,4.608,9.063,6.068,15.008,3.854c0.967-0.359,1.924-0.806,2.855-1.363 l73.064-43.64c6.664-3.981,9.473-11.554,6.275-16.906c-3.195-5.357-11.201-6.471-17.857-2.491l-73.068,43.642 c-0.67,0.4-1.29,0.845-1.88,1.311C1362.88,696.496,1360.883,703.096,1363.762,707.915z"/> <path fill="#C61348" d="M1387.832,748.206c2.594,4.339,8.347,5.891,13.988,4.195c1.309-0.394,2.613-0.961,3.869-1.71 l73.064-43.643c6.66-3.977,9.467-11.549,6.279-16.899c-3.205-5.364-11.207-6.476-17.867-2.496l-73.063,43.643 c-0.922,0.551-1.763,1.175-2.531,1.848C1386.783,737.331,1385.072,743.582,1387.832,748.206z"/> <path fill="#C61348" d="M1412.34,789.235c3.188,5.351,11.199,6.462,17.854,2.487l4.131-2.467l68.938-41.176 c6.662-3.979,9.469-11.552,6.271-16.902c-3.205-5.362-11.188-6.471-17.854-2.491l-73.068,43.645 c-1.633,0.976-3.031,2.169-4.17,3.491C1410.939,779.888,1409.924,785.188,1412.34,789.235z"/> <path fill="#ED1C24" d="M1963.287,312.902c1.203,0.324,2.414,0.408,3.58,0.281c3.9-0.419,7.322-3.173,8.4-7.183l28.395-105.745 c1.396-5.213-1.691-10.577-6.904-11.976c-5.213-1.402-10.574,1.691-11.971,6.903l-28.4,105.741 C1954.986,306.142,1958.078,311.504,1963.287,312.902z"/> <path fill="#ED1C24" d="M2126.936,241.364c-4.125-3.491-10.289-2.976-13.781,1.142l-70.758,83.552 c-3.486,4.12-2.98,10.286,1.145,13.777c2.127,1.8,4.799,2.536,7.363,2.26c2.408-0.258,4.719-1.408,6.412-3.403l70.752-83.551 C2131.566,251.021,2131.055,244.852,2126.936,241.364z"/> <path fill="#ED1C24" d="M2199.432,380.938c-1.068-5.297-6.221-8.714-11.516-7.649l-107.328,21.673 c-5.287,1.069-8.709,6.223-7.645,11.517c1.008,4.992,5.656,8.32,10.617,7.785c0.309-0.032,0.6-0.077,0.904-0.138l107.326-21.671 C2197.084,391.383,2200.506,386.229,2199.432,380.938z"/> <path fill="#ED1C24" d="M2185.932,534.891l-101.037-42.206c-4.977-2.088-10.709,0.267-12.781,5.247 c-2.086,4.982,0.268,10.708,5.246,12.794l101.035,42.206c1.57,0.656,3.211,0.874,4.801,0.7c3.436-0.37,6.557-2.545,7.982-5.952 C2193.258,542.699,2190.91,536.974,2185.932,534.891z"/> </g> <g> <path fill="#6278A1" d="M1371.359,263.962h-343.236c-66.221,0-119.904,53.682-119.904,119.907 c0,66.221,53.684,119.903,119.904,119.903h30.789v115.054l87.717-115.054h224.73c66.221,0,119.895-53.683,119.895-119.903 C1491.254,317.644,1437.58,263.962,1371.359,263.962z"/> <g> <path fill="#FFFFFF" d="M1120.117,380.286c0,14.577-11.82,26.396-26.402,26.396c-14.572,0-26.389-11.818-26.389-26.396 s11.816-26.392,26.389-26.392C1108.297,353.895,1120.117,365.709,1120.117,380.286z"/> <path fill="#FFFFFF" d="M1226.123,380.286c0,14.577-11.803,26.396-26.389,26.396c-14.568,0-26.389-11.818-26.389-26.396 s11.82-26.392,26.389-26.392C1214.32,353.895,1226.123,365.709,1226.123,380.286z"/> <path fill="#FFFFFF" d="M1332.162,380.286c0,14.577-11.822,26.396-26.404,26.396c-14.572,0-26.393-11.818-26.393-26.396 s11.82-26.392,26.393-26.392C1320.34,353.895,1332.162,365.709,1332.162,380.286z"/> </g> </g> <g> <g> <g> <path fill="#FFFFFF" d="M2547.418,1383.729c0,83.228-67.467,150.684-150.707,150.684c-83.207,0-150.656-67.456-150.656-150.684 c0-83.215,67.449-150.67,150.656-150.67C2479.951,1233.059,2547.418,1300.514,2547.418,1383.729z"/> </g> <g> <path fill="#ED1C24" d="M2396.711,1548.117c-90.623,0-164.371-73.751-164.371-164.389c0-90.639,73.748-164.375,164.371-164.375 c90.654,0,164.379,73.736,164.379,164.375C2561.09,1474.366,2487.365,1548.117,2396.711,1548.117z M2396.711,1246.752 c-75.52,0-136.965,61.444-136.965,136.977c0,75.533,61.445,136.987,136.965,136.987c75.547,0,136.988-61.454,136.988-136.987 C2533.699,1308.196,2472.258,1246.752,2396.711,1246.752z"/> </g> <g> <path fill="#ED1C24" d="M2396.711,1494.374c-60.994,0-110.623-49.64-110.623-110.646c0-61.007,49.629-110.632,110.623-110.632 c61.018,0,110.668,49.625,110.668,110.632C2507.379,1444.734,2457.729,1494.374,2396.711,1494.374z M2396.711,1300.483 c-45.893,0-83.23,37.346-83.23,83.245c0,45.901,37.338,83.249,83.23,83.249c45.91,0,83.258-37.348,83.258-83.249 C2479.969,1337.829,2442.621,1300.483,2396.711,1300.483z"/> </g> <g> <path fill="#ED1C24" d="M2396.711,1433.452c-27.41,0-49.707-22.302-49.707-49.724c0-27.409,22.297-49.715,49.707-49.715 c27.434,0,49.74,22.306,49.74,49.715C2446.451,1411.15,2424.145,1433.452,2396.711,1433.452z M2396.711,1361.415 c-12.299,0-22.297,10.009-22.297,22.313c0,12.317,9.998,22.327,22.297,22.327c12.309,0,22.33-10.01,22.33-22.327 C2419.041,1371.424,2409.02,1361.415,2396.711,1361.415z"/> </g> </g> <g> <polygon fill="#F3A752" points="2640.201,1236.534 2563.363,1283.887 2563.018,1221.532 2639.854,1174.171 "/> <polygon fill="#F3A752" points="2640.201,1236.534 2563.363,1283.887 2618.916,1312.216 2695.748,1264.858 "/> <g> <path fill="#231F20" d="M2401.369,1392.14c-2.82,0-5.572-1.421-7.162-3.994c-2.432-3.949-1.203-9.123,2.748-11.559 l256.646-158.188c3.961-2.438,9.125-1.2,11.559,2.742c2.432,3.948,1.205,9.123-2.746,11.559l-256.648,158.188 C2404.393,1391.733,2402.869,1392.14,2401.369,1392.14z"/> </g> </g> </g> <g> <g> <path fill="#7576AD" d="M478.221,1663.889h-55.777c13.055,52.925-3.107,123.272-27.732,173.95 c-20.264,41.669-43.648,68.846-76.262,92.738c17.719,7.438,37.68,10.39,58.553,10.39c69.197,0,121.961-32.121,121.961-154.725 C498.963,1741.027,491.309,1698.977,478.221,1663.889z"/> <path fill="#827EB7" d="M394.711,1837.839c24.625-50.678,40.787-121.025,27.732-173.95h-153.35 c-13.092,35.088-20.736,77.139-20.736,122.354c0,85.645,29.018,127.101,70.092,144.335 C351.063,1906.685,374.447,1879.508,394.711,1837.839z"/> </g> </g> <g> <g> <path fill="#232E46" d="M327.711,2027.923l-1.748,0.521c-24.771,13.021-10.035,21.168,1.973,25.054l0.391-0.385h-0.615V2027.923 z"/> <path fill="#6278A1" d="M682.367,1971.869l-83.844,81.243H328.326l-0.391,0.385c-12.008-3.886-26.744-12.032-1.973-25.054 l1.748-0.521h13.785l91.217-86.358h-22.184l-103.143,85.133c-0.35,0.19-0.646,0.328-1.006,0.525 c-0.24,0.129-0.465,0.251-0.689,0.384c-6.844,3.837-10.49,7.301-12.004,10.401l-0.061,0.049l0.041-0.014 c-5.938,12.262,21.979,18.679,21.979,18.679l7.557,1.457h286.93l87.328-86.361h-15.746 C682.09,1971.851,682.367,1971.869,682.367,1971.869z"/> <path fill="#DCE6EB" d="M610.133,2027.923h-11.609c0,0-44.75,11.742,0,25.189l83.844-81.243c0,0-0.277-0.019-0.652-0.052 c-1.732-0.152-6.758-0.773-9.008-3.079c-0.348-0.715-0.52-1.413-0.6-2.103L610.133,2027.923z"/> <path fill="#FFFFFF" d="M598.523,2027.923H341.496h-13.785v25.189h0.615h270.197 C553.773,2039.665,598.523,2027.923,598.523,2027.923z"/> <polygon fill="#7E9ACF" points="341.496,2027.923 598.523,2027.923 610.133,2027.923 672.107,1966.636 697.461,1941.564 432.713,1941.564 "/> </g> <g> <path fill="#232E46" d="M265.283,1987.679l-1.717,0.512c-24.805,13.027-10.063,21.177,1.951,25.062l0.389-0.387h-0.623V1987.679 z"/> <path fill="#6278A1" d="M619.947,1931.63l-83.844,81.235H265.906l-0.389,0.387c-12.014-3.885-26.756-12.034-1.951-25.062 l1.717-0.512h13.789l91.217-86.361h-22.18l-103.146,85.136c-0.346,0.19-0.641,0.326-0.998,0.521 c-0.238,0.134-0.469,0.26-0.693,0.387c-6.844,3.837-10.484,7.303-12.004,10.401l-0.066,0.051l0.047-0.014 c-5.941,12.262,21.975,18.679,21.975,18.679l7.561,1.457h286.93l87.328-86.361h-15.787 C619.658,1931.611,619.947,1931.63,619.947,1931.63z"/> <path fill="#DCE6EB" d="M547.713,1987.679h-11.609c0,0-44.748,11.742,0,25.187l83.844-81.235c0,0-0.289-0.019-0.693-0.057 c-1.781-0.159-6.74-0.794-8.967-3.079c-0.342-0.717-0.52-1.416-0.6-2.104L547.713,1987.679z"/> <path fill="#FFFFFF" d="M536.104,1987.679H279.072h-13.789v25.187h0.623h270.197 C491.355,1999.421,536.104,1987.679,536.104,1987.679z"/> <polygon fill="#7E9ACF" points="279.072,1987.679 536.104,1987.679 547.713,1987.679 609.688,1926.39 635.041,1901.317 370.289,1901.317 "/> </g> <g> <path fill="#232E46" d="M342.906,1941.909l-1.732,0.516c-24.777,13.025-10.051,21.172,1.967,25.058l0.385-0.385h-0.619V1941.909 z"/> <path fill="#6278A1" d="M697.572,1885.859l-83.85,81.238H343.525l-0.385,0.385c-12.018-3.886-26.744-12.032-1.967-25.058 l1.732-0.516h13.785l91.223-86.359H425.73l-103.156,85.145c-0.348,0.188-0.633,0.321-0.984,0.514 c-0.238,0.129-0.469,0.256-0.703,0.387c-6.844,3.834-10.484,7.3-12,10.398l-0.061,0.049l0.043-0.012 c-5.943,12.262,21.982,18.677,21.982,18.677l7.551,1.457h286.936l87.322-86.356h-15.738 C697.297,1885.841,697.572,1885.859,697.572,1885.859z"/> <path fill="#DCE6EB" d="M625.338,1941.909h-11.615c0,0-44.748,11.741,0,25.188l83.85-81.238c0,0-0.275-0.019-0.65-0.052 c-1.734-0.152-6.76-0.775-9.014-3.084c-0.344-0.715-0.521-1.413-0.596-2.103L625.338,1941.909z"/> <path fill="#FFFFFF" d="M613.723,1941.909H356.691h-13.785v25.188h0.619h270.197 C568.975,1953.65,613.723,1941.909,613.723,1941.909z"/> <polygon fill="#7E9ACF" points="356.691,1941.909 613.723,1941.909 625.338,1941.909 687.313,1880.621 712.66,1855.55 447.914,1855.55 "/> </g> </g> </g> </g> <g id="Layer_2"> </g> <g id="Layer_3"> </g> <g id="Layer_4"> </g> <g id="Layer_5"> </g> <g id="Layer_6"> </g> </svg>